/* XPM */
static char *result[] = {
/* columns rows colors chars-per-pixel */
"128 128 14 1 ",
"  c black",
". c #21181B",
"X c #291D2B",
"o c #3B2027",
"O c #3D2936",
"+ c #283540",
"@ c #781D4F",
"# c #2F5753",
"$ c #AD2F45",
"% c #BD6A62",
"& c #FFAE70",
"* c #FFD541",
"= c #E4D2AA",
"- c None",
/* pixels */
"--------------------------------------------------------------------------------------------------------------------------------",
"--------------------------------------------------------------------------------------------------------------------------------",
"--------------------------------------------------------------------------------------------------------------------------------",
"--------------------------------------------------------------------------------------------------------------------------------",
"--------------------------------------------------------------------------------------------------------------------------------",
"--------------------------------------------------------------------------------------------------------------------------------",
"--------------------------------------------------------------------------------------------------------------------------------",
"--------------------------------------------------------------------------------------------------------------------------------",
"--------------------------------------------------------------------------------------------------------------------------------",
"--------------------------------------------------------------------------------------------------------------------------------",
"--------------------------------------------------------------------------------------------------------------------------------",
"--------------------------------------------------------------------------------------------------------------------------------",
"--------------------------------------------------------------------------------------------------------------------------------",
"--------------------------------------------------------------------------------------------------------------------------------",
"--------------------------------------------------------------------------------------------------------------------------------",
"--------------------------------------------------------------------------------------------------------------------------------",
"--------------------------------------------------------------------------------------------------------------------------------",
"--------------------------------------------------------------------------------------------------------------------------------",
"--------------------------------------------------------------------------------------------------------------------------------",
"--------------------------------------------------------------------------------------------------------------------------------",
"--------------------------------------------------------------------------------------------------------------------------------",
"--------------------------------------------------------------------------------------------------------------------------------",
"--------------------------------------------------------------------------------------------------------------------------------",
"--------------------------------------------------------------------------------------------------------------------------------",
"--------------------------------------------------------------------------------------------------------------------------------",
"--------------------------------------------------------------------------------------------------------------------------------",
"--------------------------------------------------------------------------------------------------------------------------------",
"--------------------------------------------------------------------------------------------------------------------------------",
"--------------------------------------------------------------------------------------------------------------------------------",
"--------------------------------------------------------------------------------------------------------------------------------",
"--------------------------------------------------------------------------------------------------------------------------------",
"--------------------------------------------------------------------------------------------------------------------------------",
"--------------------------------------------------------------------------------------------------------------------------------",
"--------------------------------------------------------------------------------------------------------------------------------",
"--------------------------------------------------------------------------------------------------------------------------------",
"--------------------------------------------------------------------------------------------------------------------------------",
"--------------------------------------------------------------------------------------------------------------------------------",
"--------------------------------------------------------------------------------------------------------------------------------",
"--------------------------------------------------------------------------------------------------------------------------------",
"--------------------------------------------------------------------------------------------------------------------------------",
"--------------------------------------------------------------------------------------------------------------------------------",
"--------------------------------------------------------------------------------------------------------------------------------",
"--------------------------------------------------------------------------------------------------------------------------------",
"--------------------------------------------------------------------------------------------------------------------------------",
"--------------------------------------------------------------------------------------------------------------------------------",
"--------------------------------------------------------------------------------------------------------------------------------",
"--------------------------------------------------------------------------------------------------------------------------------",
"--------------------------------------------------------------------------------------------------------------------------------",
"--------------------------------------------------------------------------------------------------------------------------------",
"--------------------------------------------------------------------------------------------------------------------------------",
"--------------------------------------------------------------------------------------------------------------------------------",
"--------------------------------------------------------------------------------------------------------------------------------",
"---------------------------------------------------------------------- - -------------------------------------------------------",
"--------------------------------------------------------------------- o o ------------------------------------------------------",
"--------------------------------------------------------------------- o o ------------------------------------------------------",
"--------------------------------------------------------------------- oo o -----------------------------------------------------",
"---------------------------------------------------------------------- o o -----------------------------------------------------",
"----------------------------------------------------------------       oo o ----------------------------------------------------",
"--------------------------------------------------------------  &&&&& ooo o ----------------------------------------------------",
"------------------------------------------------------------  &&&&&&& ooo o ----------------------------------------------------",
"----------------------------------------------------------  &&&&&&&& ooo  o ----------------------------------------------------",
"--------------------------------------------------------- & &&&&&&&& ooo $ -----------------------------------------------------",
"-------------------------------------------------------- && &&&&&&&%    $$$ ----------------------------------------------------",
"------------------------------------------------------- &&& &&&&&&%% $$$$$$ ----------------------------------------------------",
"------------------------------------------------------- &&& &&&&&&%% $$$$$$ ----------------------------------------------------",
"------------------------------------------------------- && &&&&&&%% $$$$$$$$ ---------------------------------------------------",
"------------------------------------------------------ &&& &&&&&&%% $$$  $$$$ --------------------------------------------------",
"------------------------------------------------------ &&& &&&&&%%% $$$$$  $$ --------------------------------------------------",
"------------------------------------------------------ &&% &&&&&%% $$$$$ **  ---------------------------------------------------",
"----------------------------------------------------- &&&% &&&&&%% $$$$$$  $$ --------------------------------------------------",
"----------------------------------------------------- &&&% &&&&%%% $$$$$$$$$$ --------------------------------------------------",
"----------------------------------------------------- &&&% &&&&%%% $$$$$$$$$$$ -------------------------------------------------",
"----------------------------------------------------- &&%% &&&&%%% $$$$$$$$  $ -------------------------------------------------",
"----------------------------------------------------- &&%% &&&&%% $$$$$   $$$ --------------------------------------------------",
"----------------------------------------------------- &&%%% &&&%% $$$$ = -   ---------------------------------------------------",
"----------------------------------------------------- &&%%% &&&%%  $$$ = -------------------------------------------------------",
"----------------------------------------------------- &&%%%% &&%% % $$$ ----  --------------------------------------------------",
"------------------------------------------------------ &%%%% &&&% %% $$$    $$ -------------------------------------------------",
"-------------------------------------------------------     - &&%% %%  $$$$$$$ -------        ----------------------------------",
"-------------------------------------------------------------- &%% %%%%   $$$ ------- %%% .... ---------------------------------",
"-------------------------------------------------------------      %%% ---           %%%% .... ---------------------------------",
"---------------------------------------------------------    ######       ########### %%% .... ---------------------------------",
"-------------------------------------------------------- # #########################+ %%% ... ----------------------------------",
"------------------------------------------------------- # #########################++ %%% .  -----------------------------------",
"------------------------------------------------------ ## ######################+++++ %%   -------------------------------------",
"------------------------------------------------------ #+ ################+++++++++++   ----------------------------------------",
"----------------------------------------------------- #+ #############+++++++++++    -------------------------------------------",
"----------------------------------------------------- #+ #########++++++++++     -----------------------------------------------",
"---------------------------------------------------- ##+ ########++++       ----------------------------------------------------",
"---------------------------------------------------- #++ ########++  -----------------------------------------------------------",
"--------------------------------------------------- ##+ ########++++ -----------------------------------------------------------",
"--------------------------------------------------- #++ #######+++++ -----------------------------------------------------------",
"-------------------------------------------------- ##++   ###+++++++ -----------------------------------------------------------",
"-------------------------------------------------- ##+ $$$      ++++ -----------------------------------------------------------",
"-------------------------------------------------- #++ $$$$$$$$$     -----------------------------------------------------------",
"-------------------------------------------------- #++ $$$$$$$$$@@@@ -----------------------------------------------------------",
"---------------------------------------------------  + $$$$$$$$@@@@@ -----------------------------------------------------------",
"-----------------------------------------------------  $$$$$$$@@@@@@ -----------------------------------------------------------",
"------------------------------------------------------     $@@@@@@@@@ ----------------------------------------------------------",
"------------------------------------------------------ OOOO     @@@@@ ----------------------------------------------------------",
"------------------------------------------------------ OOOOOOOOO      ----------------------------------------------------------",
"------------------------------------------------------ OOOOOOOOOOOOOOO ---------------------------------------------------------",
"----------------------------------------------------- OOOOOOOXXOOOOOOXO --------------------------------------------------------",
"----------------------------------------------------- OOOOOOOOOXOOOOOXO --------------------------------------------------------",
"----------------------------------------------------- OOOOOOOOOOXOOOXOOO -------------------------------------------------------",
"----------------------------------------------------- OOOOOOOOOOXXOXOOOO -------------------------------------------------------",
"----------------------------------------------------- OOOOOOOOOXX XXOOOO -------------------------------------------------------",
"---------------------------------------------------- OOOOOOOOOOXX XXXOOOO ------------------------------------------------------",
"---------------------------------------------------- OOOOOOOOOOX XXXXOOOO ------------------------------------------------------",
"---------------------------------------------------- OOOOOOOOOXX XXXXOOOO ------------------------------------------------------",
"--------------------------------------------------- OOOOOOOOOOXX XXXXXOOO ------------------------------------------------------",
"-------------------------------------------------- OOOOOOOOOOXXX XXXXXOOOO -----------------------------------------------------",
"------------------------------------------------- OOOOOOOOOOOXXX XXXXXOOOO -----------------------------------------------------",
"------------------------------------------------ OOOOOOOOOOOXXX XXXXXXOOOO -----------------------------------------------------",
"------------------------------------------------ OOOOOOOOOOOXXX XXXXXXOOOO -----------------------------------------------------",
"----------------------------------------------- OOOOOOOOOOXXXXX XXXXXXOOO ------------------------------------------------------",
"----------------------------------------------- OOOOOOOOOXXXXX XXXXXXXOOO ------------------------------------------------------",
"----------------------------------------------- OOOOOOXXXXXXXX XXXXXXOOOO ------------------------------------------------------",
"------------------------------------------------ XXXXXXXXXXXX XXXXXXXOOOO ------------------------------------------------------",
"------------------------------------------------ XXXXXXXXXXX - XXXXXOOOO -------------------------------------------------------",
"-------------------------------------------------  XXXXXXXX -- XXXXXOOOO -------------------------------------------------------",
"------------------------------------------------ %%  XXXXX --- XXXXOOOO --------------------------------------------------------",
"------------------------------------------------ %%%%     ----- XXXOO  ---------------------------------------------------------",
"----------------------------------------------- %%%%% ----------     -----------------------------------------------------------",
"----------------------------------------------- %%%%% ---------- %%%% ----------------------------------------------------------",
"----------------------------------------------- %%%%% ---------- %%%%% ---------------------------------------------------------",
"------------------------------------------------ %%%%%  -------- %%%%%%  -------------------------------------------------------",
"------------------------------------------------- %%%%%% ------- %%%%%%%% ------------------------------------------------------"
};
