/* XPM */
static char *result[] = {
/* columns rows colors chars-per-pixel */
"37 43 38 1 ",
"  c #04000C",
". c #06000D",
"X c #220045",
"o c #240047",
"O c #2C0056",
"+ c #2D0057",
"@ c #2D005A",
"# c #58009A",
"$ c #6A00A1",
"% c #6B00A1",
"& c #6B00A2",
"* c #6A00AF",
"= c #8926A5",
"- c #8B26A5",
"; c #C13CBA",
": c #8500CB",
"> c #8200CC",
", c #8500CD",
"< c #8400D2",
"1 c #8D00D2",
"2 c #BB16C1",
"3 c #BA16C2",
"4 c #BC14C2",
"5 c #A800E5",
"6 c #A900E7",
"7 c #BC00FF",
"8 c #BD00FF",
"9 c #C500FA",
"0 c #D119FF",
"q c #B64FC8",
"w c #B548CC",
"e c #A750D1",
"r c #BE58D0",
"t c #D05CEC",
"y c #D677E5",
"u c #E275FB",
"i c #E5CADD",
"p c None",
/* pixels */
"ppppppppppppppppppppppppppppppppppppp",
"ppppppppppppppppppppppppppppppppppppp",
"ppppppppppppppppppppppppppppppppppppp",
"ppppppppppppppppppppppppppppppppppppp",
"ppppppppppppppppppppppppppppppppppppp",
"ppppppppppppppppppppppppppppppppppppp",
"ppppppppppppppppppppppppppppppppppppp",
"ppppppppppppppprrrrrqrppppppppppppppp",
"ppppppppppppprr##7   OO#ppppppppppppp",
"ppppppppppppr  #77   #OO#pppppppppppp",
"pppppppppper  ####   ##OO#ppppppppppp",
"ppppppppppe   #O### ####i0#pppppppppp",
"pppppppppe  223O###O##iii0##ppppppppp",
"ppppppppee;;222OO#OOOiiii00##pppppppp",
"ppppppppee;;222OO#iiiiiii700#pppppppp",
"ppppppp#e;;;42+@rrriiiiii770upppppppp",
"ppppppp##;;243+rrrrrriiii777uuppppppp",
"ppppppp##*;27rrrrrrrrriii787uuppppppp",
"ppppppp##*#77rrrrrrrrrrrrr7uu6ppppppp",
"pppppp###**7rrtttyrrrrrtr%8u661pppppp",
"pppppp##,**7rrtttyyrrrrtt%%9661pppppp",
"pppppp##,,*7rttttyyrrrrttt%9561pppppp",
"pppppp#,,,*7rtttttyrrrrttt%9&&1pppppp",
"pppppp#:,,*7rrttttyrrrrttt%9&&1pppppp",
"pppppp>:>,*orrttttyrrrrttt%9&&&pppppp",
"pppppp##<:*oorrtttyrrrrttw &&$&pppppp",
"ppppppp##wwoXrrrttyrrrrttw &&&&pppppp",
"ppppppp##wwoXXrrrryrrrrrr .9&&ppppppp",
"pppppppr77wooXrrrrtyrrrrr 999&ppppppp",
"pppppppp777 oXrrrttyrrrrr 998pppppppp",
"pppppppp87w  oortttttrrr-9997pppppppp",
"pppppppppww  oo99rrrrr--=  8ppppppppp",
"pppppppppp    oo99orr=--= 8pppppppppp",
"pppppppppp     o99Xo ====77pppppppppp",
"pppppppppppp    9999    87ppppppppppp",
"ppppppppppppp     999987ppppppppppppp",
"ppppppppppppppp .88787ppppppppppppppp",
"ppppppppppppppppppppppppppppppppppppp",
"ppppppppppppppppppppppppppppppppppppp",
"ppppppppppppppppppppppppppppppppppppp",
"ppppppppppppppppppppppppppppppppppppp",
"ppppppppppppppppppppppppppppppppppppp",
"ppppppppppppppppppppppppppppppppppppp"
};
