/* XPM */
static char *result[] = {
/* columns rows colors chars-per-pixel */
"38 43 32 1 ",
"  c #352B10",
". c #533D00",
"X c #5B4100",
"o c #5C4100",
"O c #855C00",
"+ c #8D6A00",
"@ c #8D6B00",
"# c #936600",
"$ c #A77500",
"% c #A77600",
"& c #AB7E00",
"* c #A59109",
"= c #A59208",
"- c #BF9700",
"; c #A0AD00",
": c #A2AD00",
"> c #A4AD00",
", c #B1BC0E",
"< c #C09800",
"1 c #C69800",
"2 c #CE9B00",
"3 c #CF9C00",
"4 c #C7B814",
"5 c #E0B700",
"6 c #CABD22",
"7 c #D9B422",
"8 c #E2CF10",
"9 c #D3C522",
"0 c #F1E32B",
"q c #EAE045",
"w c #FBFDFA",
"e c None",
/* pixels */
"eeeeeeeeeeeeeeeeeeeeeeeeeeeeeeeeeeeeee",
"eeeeeeeeeeeeeeeeeeeeeeeeeeeeeeeeeeeeee",
"eeeeeeeeeeeeeeeeeeeeeeeeeeeeeeeeeeeeee",
"eeeeeeeeeeeeeeeeeeeeeeeeeeeeeeeeeeeeee",
"eeeeeeeeeeeeeeeeeeeeeeeeeeeeeeeeeeeeee",
"eeeeeeeeeeeeeeeeeeeeeeeeeeeeeeeeeeeeee",
"eeeeeeeeeeeeeeeeeeeeeeeeeeeeeeeeeeeeee",
"eeeeeeeeeeeeee9999969eeeeeeeeeeeeeeeee",
"eeeeeeeeeeee99OO2   XXOeeeeeeeeeeeeeee",
"eeeeeeeeeee9  O22   OXXOeeeeeeeeeeeeee",
"eeeeeeeee79  OOOO   OOXXOeeeeeeeeeeeee",
"eeeeeeeee7   OXOOO OOOOw5Oeeeeeeeeeeee",
"eeeeeeee7  ;;>XOOOXOOwww5OOeeeeeeeeeee",
"eeeeeee77,,;;;XXOXXXwwww55OOeeeeeeeeee",
"eeeeeee77,,;;;XXOwwwwwww255Oeeeeeeeeee",
"eeeeeeO7,,,:;Xo999wwwwww2250eeeeeeeeee",
"eeeeeeOO,,;:>X999999wwww22200eeeeeeeee",
"eeeeeeOO#,;2999999999www23200eeeeeeeee",
"eeeeeeOO#O229999999999999200<eeeeeeeee",
"eeeeeOOO##299888q9999989@30<<&eeeeeeee",
"eeeeeOO%##299888qq999988@@1<<&eeeeeeee",
"eeeeeOO%%#298888qq9999888@1-<&eeeeeeee",
"eeeeeO%%%#2988888q9999888@1@@&eeeeeeee",
"eeeeeO$%%#2998888q9999888@1@@&eeeeeeee",
"eeeee$$$%#.998888q9999888@1@@@eeeeeeee",
"eeeeeOO%$#..99888q9999884 @@+@eeeeeeee",
"eeeeeeOO44..99988q9999884 @@@@eeeeeeee",
"eeeeeeOO44...9999q999999  1@@eeeeeeeee",
"eeeeee9224...99998q99999 111@eeeeeeeee",
"eeeeeee222 ..99988q99999 113eeeeeeeeee",
"eeeeeee324  ..988888999=1112eeeeeeeeee",
"eeeeeeee44  ..1199999==*  3eeeeeeeeeee",
"eeeeeeeee    ..11.99*==* 3eeeeeeeeeeee",
"eeeeeeeee     .11.. ****22eeeeeeeeeeee",
"eeeeeeeeeee    1111    32eeeeeeeeeeeee",
"eeeeeeeeeeee     111132eeeeeeeeeeeeeee",
"eeeeeeeeeeeeee  33232eeeeeeeeeeeeeeeee",
"eeeeeeeeeeeeeeeeeeeeeeeeeeeeeeeeeeeeee",
"eeeeeeeeeeeeeeeeeeeeeeeeeeeeeeeeeeeeee",
"eeeeeeeeeeeeeeeeeeeeeeeeeeeeeeeeeeeeee",
"eeeeeeeeeeeeeeeeeeeeeeeeeeeeeeeeeeeeee",
"eeeeeeeeeeeeeeeeeeeeeeeeeeeeeeeeeeeeee",
"eeeeeeeeeeeeeeeeeeeeeeeeeeeeeeeeeeeeee"
};
