/* XPM */
static char *result[] = {
/* columns rows colors chars-per-pixel */
"38 42 39 1 ",
"  c #1F0500",
". c #220500",
"X c #230500",
"o c #2B0700",
"O c #360700",
"+ c #390800",
"@ c #410800",
"# c #510600",
"$ c #5B000B",
"% c #600100",
"& c #620300",
"* c #660B00",
"= c #720700",
"- c #7C0B00",
"; c #810000",
": c #8E0B00",
"> c #9C0B00",
", c #A30000",
"< c #CA0000",
"1 c #C20B00",
"2 c red",
"3 c #FF1C00",
"4 c #FF0012",
"5 c #FF0016",
"6 c #ED0047",
"7 c #EC0054",
"8 c #FF0051",
"9 c #FF0053",
"0 c #FF0055",
"q c #FF0059",
"w c #FF006C",
"e c #FF0771",
"r c #FF256D",
"t c #FF4740",
"y c #FF2392",
"u c #FF5784",
"i c #FF598D",
"p c #BCC1C5",
"a c None",
/* pixels */
"aaaaaaaaaaaaaaaaaaaaaaaaaaaaaaaaaaaaaa",
"aaaaaaaaaaaaaaaaaaaaaaaaaaaaaaaaaaaaaa",
"aaaaaaaaaaaaaaaaaaaaaaaaaaaaaaaaaaaaaa",
"aaaaaaaaaaaaaaaaaaaaaaaaaaaaaaaaaaaaaa",
"aaaaaaaaaaaaaaaaaaaaaaaaaaaaaaaaaaaaaa",
"aaaaaaaaaaaaaaaaaaaaaaaaaaaaaaaaaaaaaa",
"aaaaaaaaaaaaaaaaaaaaaaaaaaaaaaaaaaaaaa",
"aaaaaaaaaaaaaaaaaaa1aaaaaaaaaaaaaaaaaa",
"aaaaaaaaaaaaaaaaaa:&1aaaaaaaaaaaaaaaaa",
"aaaaaaaaaaaaaaaaa:Ou11aaaaaaaaaaaaaaaa",
"aaaaaaaaaaaaaaaa1Ouu<1oaaaaaaaaaaaaaaa",
"aaaaaaaaaaaaaaa1Ouu*15ooaaaaaaaaaaaaaa",
"aaaaaaaaaaaaaa+1uu**1:5ooaaaaaaaaaaaaa",
"aaaaaaaaaaaaaO1uu***1::<-5aaaaaaaaaaaa",
"aaaaaaaaaaaaa11p***211::<;aaaaaaaaaaaa",
"aaaaaaaaaaaaa1Oo**2211&&&;aaaaaaaaaaaa",
"aaaaaaaaaaaaa1Oo3322==>**;aaaaaaaaaaaa",
"aaaaaaaaaaaaa1Oo3322==>**;aaaaaaaaaaaa",
"aaaaaaaaaaaay1Oo3322==>**%raaaaaaaaaaa",
"aaaaaaaaaaaay1O33322@=>>*%raaaaaaaaaaa",
"aaaaaaaaaaaay1o33t22@@>>*%raaaaaaaaaaa",
"aaaaaaaaaaaay1ottt22@@1>*%raaaaaaaaaaa",
"aaaaaaaaaaaay###tt22@@11**raaaaaaaaaaa",
"aaaaaaaaaaay$o##tt22@@11e*r6aaaaaaaaaa",
"aaaaaaaaaaay$oo#tt22=11ee*66aaaaaaaaaa",
"aaaaaaaaaaaw$7oott22=1eee*%6aaaaaaaaaa",
"aaaaaaaaaaaw$7oo5t22=1ee9,%6aaaaaaaaaa",
"aaaaaaaaaaaw$7oo5t22=1158%%paaaaaaaaaa",
"aaaaaaaaaaaaq25o5552=550u:;aaaaaaaaaaa",
"aaaaaaaaaaaaq2255555&&5ui:;aaaaaaaaaaa",
"aaaaaaaaaaaaqp2pu555&&ui::;aaaaaaaaaaa",
"aaaaaaaaaaaaappup  1&.u2upaaaaaaaaaaaa",
"aaaaaaaaaaaaaapp4  1. 2upaaaaaaaaaaaaa",
"aaaaaaaaaaaaaaap55 1  upaaaaaaaaaaaaaa",
"aaaaaaaaaaaaaaaau551 5uaaaaaaaaaaaaaaa",
"aaaaaaaaaaaaaaaaaq51.5aaaaaaaaaaaaaaaa",
"aaaaaaaaaaaaaaaaaaq1Xaaaaaaaaaaaaaaaaa",
"aaaaaaaaaaaaaaaaaaapaaaaaaaaaaaaaaaaaa",
"aaaaaaaaaaaaaaaaaaaaaaaaaaaaaaaaaaaaaa",
"aaaaaaaaaaaaaaaaaaaaaaaaaaaaaaaaaaaaaa",
"aaaaaaaaaaaaaaaaaaaaaaaaaaaaaaaaaaaaaa",
"aaaaaaaaaaaaaaaaaaaaaaaaaaaaaaaaaaaaaa"
};
