/* XPM */
static char *result[] = {
/* columns rows colors chars-per-pixel */
"38 42 40 1 ",
"  c #697900",
". c #6F7800",
"X c #6C7B00",
"o c #A07200",
"O c #B67700",
"+ c #6E8B00",
"@ c #708900",
"# c #91A400",
"$ c #A7AD00",
"% c #ABAF00",
"& c #C48700",
"* c #D68700",
"= c #D18E00",
"- c #D09700",
"; c #EE8100",
": c #CCB400",
"> c #E5AE00",
", c #FAAF00",
"< c #FFB600",
"1 c #FFB800",
"2 c #FFBD00",
"3 c #FFBE00",
"4 c #C0C100",
"5 c #D7C400",
"6 c #FFD600",
"7 c #FFE800",
"8 c #FFEC1F",
"9 c #FFC745",
"0 c #FFF745",
"q c #FFF683",
"w c #FFFF84",
"e c #FFFFA4",
"r c #FFFFB4",
"t c #FFFFC0",
"y c #FFFFC6",
"u c #FFFFCC",
"i c #FFFFE8",
"p c #FFFFEA",
"a c white",
"s c None",
/* pixels */
"ssssssssssssssssssssssssssssssssssssss",
"ssssssssssssssssssssssssssssssssssssss",
"ssssssssssssssssssssssssssssssssssssss",
"ssssssssssssssssssssssssssssssssssssss",
"ssssssssssssssssssssssssssssssssssssss",
"ssssssssssssssssssssssssssssssssssssss",
"ssssssssssssssssssssssssssssssssssssss",
"sssssssssssssssss5ssssssssssssssssssss",
"ssssssssssssssss$=:sssssssssssssssssss",
"sssssssssssssss$@i::ssssssssssssssssss",
"ssssssssssssss5@ii<:osssssssssssssssss",
"sssssssssssss5@ii#53oossssssssssssssss",
"ssssssssssss+5ii##5$3oosssssssssssssss",
"sssssssssss@5ii###5$$<43ssssssssssssss",
"sssssssssss55a###055$$<>ssssssssssssss",
"sssssssssss5@o##7055===>ssssssssssssss",
"sssssssssss5@oww70**%##>ssssssssssssss",
"sssssssssss5@oww70**%##>ssssssssssssss",
"ssssssssssu5@oww70**%##-tsssssssssssss",
"ssssssssssu5@www70O*%%#-tsssssssssssss",
"ssssssssssu5owwy70OO%%#-tsssssssssssss",
"ssssssssssu5oyyy70OO:%#-tsssssssssssss",
"ssssssssssu&&&yy70OO::##tsssssssssssss",
"sssssssssu;o&&yy70OO::e#tqssssssssssss",
"sssssssssu;oo&yy70*::ee#qqssssssssssss",
"sssssssssr;9ooyy70*:eee#-qssssssssssss",
"sssssssssr;9oo3y70*:ee6,-qssssssssssss",
"sssssssssr;9oo3y70*::36--assssssssssss",
"ssssssssss183o3330*336i$>sssssssssssss",
"ssssssssss18833333==3ip$>sssssssssssss",
"ssssssssss1a8ai333==ip$$>sssssssssssss",
"sssssssssssaaia  5=.i7iassssssssssssss",
"ssssssssssssaa2  5. 7iasssssssssssssss",
"sssssssssssssa33 5  iassssssssssssssss",
"ssssssssssssssi335 3isssssssssssssssss",
"sssssssssssssss135.3ssssssssssssssssss",
"ssssssssssssssss15Xsssssssssssssssssss",
"sssssssssssssssssassssssssssssssssssss",
"ssssssssssssssssssssssssssssssssssssss",
"ssssssssssssssssssssssssssssssssssssss",
"ssssssssssssssssssssssssssssssssssssss",
"ssssssssssssssssssssssssssssssssssssss"
};
