/* XPM */
static char *result[] = {
/* columns rows colors chars-per-pixel */
"37 42 41 1 ",
"  c #3D0035",
". c #3E0038",
"X c #400039",
"o c #57004A",
"O c #59004B",
"+ c #400052",
"@ c #540066",
"# c #5C0075",
"$ c #7F006A",
"% c #4A1485",
"& c #600082",
"* c #630084",
"= c #71008B",
"- c #76009C",
"; c #9A0083",
": c #92008A",
"> c #A4008A",
", c #B9009D",
"< c #8700B2",
"1 c #C200A3",
"2 c #8E00CF",
"3 c #9036FF",
"4 c #A72CFF",
"5 c #A62DFF",
"6 c #B831FF",
"7 c #C926F4",
"8 c #D72AFF",
"9 c #CA30FF",
"0 c #CA31FF",
"q c #DD36FF",
"w c #EB28FF",
"e c #FF29FF",
"r c #FF50FF",
"t c #FF57FF",
"y c #FF5AFF",
"u c #FF5BFF",
"i c #FD7AFF",
"p c #FC95FF",
"a c #F79BFF",
"s c #EAEAEA",
"d c None",
/* pixels */
"ddddddddddddddddddddddddddddddddddddd",
"ddddddddddddddddddddddddddddddddddddd",
"ddddddddddddddddddddddddddddddddddddd",
"ddddddddddddddddddddddddddddddddddddd",
"ddddddddddddddddddddddddddddddddddddd",
"ddddddddddddddddddddddddddddddddddddd",
"ddddddddddddddddddddddddddddddddddddd",
"ddddddddddddddddddd1ddddddddddddddddd",
"dddddddddddddddddd;*,dddddddddddddddd",
"ddddddddddddddddd;op,,ddddddddddddddd",
"dddddddddddddddd1opp2,+dddddddddddddd",
"ddddddddddddddd1opp$14++ddddddddddddd",
"ddddddddddddddO1pp$$1;4++dddddddddddd",
"dddddddddddddo1pp$$$1;;2:4ddddddddddd",
"ddddddddddddd11s$$$w11;;2-ddddddddddd",
"ddddddddddddd1o+$$7w11***-ddddddddddd",
"ddddddddddddd1o+ee7w==>$$-ddddddddddd",
"ddddddddddddd1o+ee7w==>$$-ddddddddddd",
"ddddddddddddi1o+ee7w==>$$&ydddddddddd",
"ddddddddddddi1oeee7w@=>>$&ydddddddddd",
"ddddddddddddi1+eeu7w@@>>$&ydddddddddd",
"ddddddddddddi1+uuu7w@@,>$&ydddddddddd",
"ddddddddddddi###uu7w@@,,$$ydddddddddd",
"dddddddddddi%+##uu7w@@,,t$yqddddddddd",
"dddddddddddi%++#uu7w=,,tt$qqddddddddd",
"dddddddddddr%3++uu7w=,ttt$&qddddddddd",
"dddddddddddr%3++4u7w=,tt0<&qddddddddd",
"dddddddddddr%3++4u7w=,,49&&sddddddddd",
"dddddddddddd684+444w=449p;-dddddddddd",
"dddddddddddd68844444**4pa;-dddddddddd",
"dddddddddddd6s8sp444**pa;;-dddddddddd",
"dddddddddddddssps  1*.p7psddddddddddd",
"ddddddddddddddss5  1. 7psdddddddddddd",
"ddddddddddddddds44 1  psddddddddddddd",
"ddddddddddddddddp441 4pdddddddddddddd",
"ddddddddddddddddd641.4ddddddddddddddd",
"dddddddddddddddddd61Xdddddddddddddddd",
"dddddddddddddddddddsddddddddddddddddd",
"ddddddddddddddddddddddddddddddddddddd",
"ddddddddddddddddddddddddddddddddddddd",
"ddddddddddddddddddddddddddddddddddddd",
"ddddddddddddddddddddddddddddddddddddd"
};
