/* XPM */
static char *result[] = {
/* columns rows colors chars-per-pixel */
"37 43 17 1 ",
"  c #007D00",
". c #00A800",
"X c #00BD00",
"o c #00832A",
"O c #009C34",
"+ c #009D35",
"@ c #009D37",
"# c #00CB31",
"$ c #00CB34",
"% c #00E14A",
"& c #00E957",
"* c #41FF6C",
"= c #84FFA7",
"- c #85FFA8",
"; c #87FFA9",
": c white",
"> c None",
/* pixels */
">>>>>>>>>>>>>>>>>>>>>>>>>>>>>>>>>>>>>",
">>>>>>>>>>>>>>>>>>>>>>>>>>>>>>>>>>>>>",
">>>>>>>>>>>>>>>>>>>>>>>>>>>>>>>>>>>>>",
">>>>>>>>>>>>>>>>>>>>>>>>>>>>>>>>>>>>>",
">>>>>>>>>>>>>>>>>>>>>>>>>>>>>>>>>>>>>",
">>>>>>>>>>>>>>>>>>>>>>>>>>>>>>>>>>>>>",
">>>>>>>>>>>>>>>>>>>>>>>>>>>>>>>>>>>>>",
">>>>>>>>>>>>>>>>>>>>>>>>>>>>>>>>>>>>>",
">>>>>>>>>>>>>>>>>>>>>>>>>>>>>>>>>>>>>",
">>>>>>>>>>>>>>>>>>>>>>>>>>>>>>>>>>>>>",
">>>>>>>>>>***-----------O>>>>>>>>>>>>",
">>>>>>>>>@@**=--------=O*O>>>>>>>>>>>",
">>>>>>>>@@@**OOOOOOOOOO**OO>>>>>>>>>>",
">>>>>>>&O++@*O********O**O-->>>>>>>>>",
">>>>>>&&&O@@*OO******OO**---$>>>>>>>>",
">>>>>>+++&&&&------;--:-:-$$$>>>>>>>>",
">>>>>>+&+@&:-----------:&$$$$>>>>>>>>",
">>>>>>++&@@:-o+++++++o-:O$$$$>>>>>>>>",
">>>>>>+&+@+:+-ooooooo-&:@  +$>>>>>>>>",
">>>>>>XX&@+:++-:::::-++-@  +$>>>>>>>>",
">>>>>>XXX@+-++%:::::+++-@ ++$>>>>>>>>",
">>>>>>XXX@+-++%%:::%+++:@+XX$>>>>>>>>",
">>>>>>XXX@+-%  %%:%%  +-@+XX$>>>>>>>>",
">>>>>>XX*@+-%  -...-   -@+XX$>>>>>>>>",
">>>>>>X*X@+-% -     -  -@+XX$>>>>>>>>",
">>>>>>XX*@+-%-       - -@+XX$>>>>>>>>",
">>>>>>***@+--         --@+XX$>>>>>>>>",
">>>>>>***@%-:--:::--::::@+*X$>>>>>>>>",
">>>>>>**%%-----------::-:@***>>>>>>>>",
">>>>>>*%%--@@@       @@--:%**>>>>>>>>",
">>>>>>----@@@%%     %%@@@--%#>>>>>>>>",
">>>>>>>--O@@%%%ooooo%%%@+@-@>>>>>>>>>",
">>>>>>>>@@@@$$$ooooo$$$%+@@>>>>>>>>>>",
">>>>>>>>>@@$$$$$ooo$$$$$%@>>>>>>>>>>>",
">>>>>>>>>>@$$$$ooooo$$$$@>>>>>>>>>>>>",
">>>>>>>>>>>>>>>>>>>>>>>>>>>>>>>>>>>>>",
">>>>>>>>>>>>>>>>>>>>>>>>>>>>>>>>>>>>>",
">>>>>>>>>>>>>>>>>>>>>>>>>>>>>>>>>>>>>",
">>>>>>>>>>>>>>>>>>>>>>>>>>>>>>>>>>>>>",
">>>>>>>>>>>>>>>>>>>>>>>>>>>>>>>>>>>>>",
">>>>>>>>>>>>>>>>>>>>>>>>>>>>>>>>>>>>>",
">>>>>>>>>>>>>>>>>>>>>>>>>>>>>>>>>>>>>",
">>>>>>>>>>>>>>>>>>>>>>>>>>>>>>>>>>>>>"
};
