/* XPM */
static char *result[] = {
/* columns rows colors chars-per-pixel */
"38 43 19 1 ",
"  c #520116",
". c #710015",
"X c #730014",
"o c #730015",
"O c #4B0020",
"+ c #830033",
"@ c #B2003C",
"# c #B0003F",
"$ c #CC0013",
"% c #CA0015",
"& c #FF0022",
"* c #FF0031",
"= c #FF0032",
"- c #FF587F",
"; c #FF34A3",
": c #FF5781",
"> c #FF5582",
", c #FFF1F5",
"< c None",
/* pixels */
"<<<<<<<<<<<<<<<<<<<<<<<<<<<<<<<<<<<<<<",
"<<<<<<<<<<<<<<<<<<<<<<<<<<<<<<<<<<<<<<",
"<<<<<<<<<<<<<<<<<<<<<<<<<<<<<<<<<<<<<<",
"<<<<<<<<<<<<<<<<<<<<<<<<<<<<<<<<<<<<<<",
"<<<<<<<<<<<<<<<<<<<<<<<<<<<<<<<<<<<<<<",
"<<<<<<<<<<<<<<<<<<<<<<<<<<<<<<<<<<<<<<",
"<<<<<<<<<<<<<<<<<<<<<<<<<<<<<<<<<<<<<<",
"<<<<<<<<<<<<<<<<<<<<<<<<<<<<<<<<<<<<<<",
"<<<<<<<<<<<<<<<<<<<<<<<<<<<<<<<<<<<<<<",
"<<<<<<<<<<<<<<<<<<<<<<<<<<<<<<<<<<<<<<",
"<<<<<<<<<<<<;;;:::::::::::.<<<<<<<<<<<",
"<<<<<<<<<<<XX;;>::::::::>.;.<<<<<<<<<<",
"<<<<<<<<<<XXX;;..........;;..<<<<<<<<<",
"<<<<<<<<<=.oo.;.;;;;;;;;.;;.::<<<<<<<<",
"<<<<<<<<===.XX;..;;;;;;..;;:::$<<<<<<<",
"<<<<<<<<ooo====::::::-::,:,:$$$<<<<<<<",
"<<<<<<<<o=o.=,:::::::::::,=$$$$<<<<<<<",
"<<<<<<<<oo=.X,: ooooooo :,.$$$$<<<<<<<",
"<<<<<<<<o=o.o,o:       :*,.OOo$<<<<<<<",
"<<<<<<<<##=.o,oo:,,,,,:oo:.OOo$<<<<<<<",
"<<<<<<<<###.o:oo&,,,,,ooo:.Ooo$<<<<<<<",
"<<<<<<<<##@.o:oo&&,,,&ooo,.o##$<<<<<<<",
"<<<<<<<<##@.o:&OO&&,&&OOo:.o##$<<<<<<<",
"<<<<<<<<##;.o:&OO:+++:OOO:.o##$<<<<<<<",
"<<<<<<<<#;#.o:&O:OOOOO:OO:Xo##$<<<<<<<",
"<<<<<<<<#@;.o:&:OOOOOOO:O:Xo##$<<<<<<<",
"<<<<<<<<;;;.o::OOOOOOOOO::.o##$<<<<<<<",
"<<<<<<<<;;;.&:,::,,,::,,,,Xo;#$<<<<<<<",
"<<<<<<<<;;&&:::::::::::,,:,X;;;<<<<<<<",
"<<<<<<<<;&&::XXXOOOOOOOXX::,&;;<<<<<<<",
"<<<<<<<<::::XXX&&OOOOO&&XXX::&%<<<<<<<",
"<<<<<<<<<::.XX&&&     &&&Xo.:X<<<<<<<<",
"<<<<<<<<<<XXXX$$$     $$$&oX.<<<<<<<<<",
"<<<<<<<<<<<XX$$$$$   $$$$$&X<<<<<<<<<<",
"<<<<<<<<<<<<X$$$$     $$$$X<<<<<<<<<<<",
"<<<<<<<<<<<<<<<<<<<<<<<<<<<<<<<<<<<<<<",
"<<<<<<<<<<<<<<<<<<<<<<<<<<<<<<<<<<<<<<",
"<<<<<<<<<<<<<<<<<<<<<<<<<<<<<<<<<<<<<<",
"<<<<<<<<<<<<<<<<<<<<<<<<<<<<<<<<<<<<<<",
"<<<<<<<<<<<<<<<<<<<<<<<<<<<<<<<<<<<<<<",
"<<<<<<<<<<<<<<<<<<<<<<<<<<<<<<<<<<<<<<",
"<<<<<<<<<<<<<<<<<<<<<<<<<<<<<<<<<<<<<<",
"<<<<<<<<<<<<<<<<<<<<<<<<<<<<<<<<<<<<<<"
};
