/* XPM */
static char *result[] = {
/* columns rows colors chars-per-pixel */
"38 43 18 1 ",
"  c #F87F00",
". c #E69F00",
"X c #FF9B00",
"o c #FF9C00",
"O c #FFA000",
"+ c #F3B800",
"@ c #F0BA00",
"# c #F3BA00",
"$ c #FFD000",
"% c #FFD100",
"& c #FFE100",
"* c #FFE500",
"= c #FFEF4B",
"- c #FFF772",
"; c #FFF774",
": c #FFF775",
"> c #FEFDFC",
", c None",
/* pixels */
",,,,,,,,,,,,,,,,,,,,,,,,,,,,,,,,,,,,,,",
",,,,,,,,,,,,,,,,,,,,,,,,,,,,,,,,,,,,,,",
",,,,,,,,,,,,,,,,,,,,,,,,,,,,,,,,,,,,,,",
",,,,,,,,,,,,,,,,,,,,,,,,,,,,,,,,,,,,,,",
",,,,,,,,,,,,,,,,,,,,,,,,,,,,,,,,,,,,,,",
",,,,,,,,,,,,,,,,,,,,,,,,,,,,,,,,,,,,,,",
",,,,,,,,,,,,,,,,,,,,,,,,,,,,,,,,,,,,,,",
",,,,,,,,,,,,,,,,,,,,,,,,,,,,,,,,,,,,,,",
",,,,,,,,,,,,,,,,,,,,,,,,,,,,,,,,,,,,,,",
",,,,,,,,,,,,,,,,,,,,,,,,,,,,,,,,,,,,,,",
",,,,,,,,,,,,===;;;;;;;;;;;+,,,,,,,,,,,",
",,,,,,,,,,,@@==-;;;;;;;;-+=+,,,,,,,,,,",
",,,,,,,,,,@@@==++++++++++==++,,,,,,,,,",
",,,,,,,,,*+###=+========+==+;;,,,,,,,,",
",,,,,,,,***+@@=++======++==;;;%,,,,,,,",
",,,,,,,,###****;;;;;;:;;>;>;%%%,,,,,,,",
",,,,,,,,#*##*>;;;;;;;;;;;>*%%%%,,,,,,,",
",,,,,,,,##*#@>;.#######.;>+%%%%,,,,,,,",
",,,,,,,,#*###>#;.......;*>#  #%,,,,,,,",
",,,,,,,,XX*##>##;>>>>>;##;#  #%,,,,,,,",
",,,,,,,,XXX##;##&>>>>>###;# ##%,,,,,,,",
",,,,,,,,XXo##;##&&>>>&###>##XX%,,,,,,,",
",,,,,,,,XXo##;&  &&>&&  #;##XX%,,,,,,,",
",,,,,,,,XX=##;&  ;OOO;   ;##XX%,,,,,,,",
",,,,,,,,X=X##;& ;     ;  ;@#XX%,,,,,,,",
",,,,,,,,Xo=##;&;       ; ;@#XX%,,,,,,,",
",,,,,,,,===##;;         ;;##XX%,,,,,,,",
",,,,,,,,===#&;>;;>>>;;>>>>@#=X%,,,,,,,",
",,,,,,,,==&&;;;;;;;;;;;>>;>@===,,,,,,,",
",,,,,,,,=&&;;@@@       @@;;>&==,,,,,,,",
",,,,,,,,;;;;@@@&&     &&@@@;;&$,,,,,,,",
",,,,,,,,,;;+@@&&&.....&&&@##;@,,,,,,,,",
",,,,,,,,,,@@@@%%%.....%%%&#@#,,,,,,,,,",
",,,,,,,,,,,@@%%%%%...%%%%%&@,,,,,,,,,,",
",,,,,,,,,,,,@%%%%.....%%%%@,,,,,,,,,,,",
",,,,,,,,,,,,,,,,,,,,,,,,,,,,,,,,,,,,,,",
",,,,,,,,,,,,,,,,,,,,,,,,,,,,,,,,,,,,,,",
",,,,,,,,,,,,,,,,,,,,,,,,,,,,,,,,,,,,,,",
",,,,,,,,,,,,,,,,,,,,,,,,,,,,,,,,,,,,,,",
",,,,,,,,,,,,,,,,,,,,,,,,,,,,,,,,,,,,,,",
",,,,,,,,,,,,,,,,,,,,,,,,,,,,,,,,,,,,,,",
",,,,,,,,,,,,,,,,,,,,,,,,,,,,,,,,,,,,,,",
",,,,,,,,,,,,,,,,,,,,,,,,,,,,,,,,,,,,,,"
};
