/* XPM */
static char *result[] = {
/* columns rows colors chars-per-pixel */
"37 43 20 1 ",
"  c #432369",
". c #542269",
"X c #6C2980",
"o c #6D2980",
"O c #6D2A80",
"+ c #6D2A81",
"@ c #633796",
"# c #6C36B0",
"$ c #6D36B0",
"% c #9232B0",
"& c #9332B0",
"* c #B04CCE",
"= c #C25BE1",
"- c #C35BE2",
"; c #C69BFA",
": c #EAA5FD",
"> c #E9A5FE",
", c #EAA5FE",
"< c #FEF9FF",
"1 c None",
/* pixels */
"1111111111111111111111111111111111111",
"1111111111111111111111111111111111111",
"1111111111111111111111111111111111111",
"1111111111111111111111111111111111111",
"1111111111111111111111111111111111111",
"1111111111111111111111111111111111111",
"1111111111111111111111111111111111111",
"1111111111111111111111111111111111111",
"1111111111111111111111111111111111111",
"1111111111111111111111111111111111111",
"111111111111;;;,,,,,,,,,,,X1111111111",
"11111111111oo;;>,,,,,,,,>X;X111111111",
"1111111111ooo;;XXXXXXXXXX;;XX11111111",
"111111111=X++O;X;;;;;;;;X;;X,,1111111",
"11111111===Xoo;XX;;;;;;XX;;,,,&111111",
"11111111+++====,,,,,,:,,<,<,&&&111111",
"11111111+=+O=<,,,,,,,,,,,<=&&&&111111",
"11111111++=Oo<,.+++++++.,<X&&&&111111",
"11111111+=+O+<+,.......,-<O  +&111111",
"11111111##=O+<++,<<<<<,++,O  +&111111",
"11111111###O+,++*<<<<<+++,O ++&111111",
"11111111##$O+,++**<<<*+++<O+##&111111",
"11111111##$O+,*  **<**  +,O+##&111111",
"11111111##;O+,*  ,@@@,   ,O+##&111111",
"11111111#;#O+,* ,     ,  ,o+##&111111",
"11111111#$;O+,*,       , ,o+##&111111",
"11111111;;;O+,,         ,,O+##&111111",
"11111111;;;O*,<,,<<<,,<<<<o+;#&111111",
"11111111;;**,,,,,,,,,,,<<,<o;;;111111",
"11111111;**,,ooo       oo,,<*;;111111",
"11111111,,,,ooo**     **ooo,,*%111111",
"111111111,,Xoo***.....***o+O,o1111111",
"1111111111oooo&&&.....&&&*+oO11111111",
"11111111111oo&&&&&...&&&&&*o111111111",
"111111111111o&&&&.....&&&&o1111111111",
"1111111111111111111111111111111111111",
"1111111111111111111111111111111111111",
"1111111111111111111111111111111111111",
"1111111111111111111111111111111111111",
"1111111111111111111111111111111111111",
"1111111111111111111111111111111111111",
"1111111111111111111111111111111111111",
"1111111111111111111111111111111111111"
};
