/* XPM */
static char *result[] = {
/* columns rows colors chars-per-pixel */
"38 43 15 1 ",
"  c #6D0000",
". c #600015",
"X c #600019",
"o c #980015",
"O c #A30004",
"+ c #D4001C",
"@ c #DF0034",
"# c #FF003A",
"$ c #FF3C81",
"% c #FF3C83",
"& c #FF5499",
"* c #FF8EB4",
"= c #DFDFDF",
"- c #E1E1E1",
"; c None",
/* pixels */
";;;;;;;;;;;;;;;;;;;;;;;;;;;;;;;;;;;;;;",
";;;;;;;;;;;;;;;;;;;;;;;;;;;;;;;;;;;;;;",
";;;;;;;;;;;;;;;;;;;;;;;;;;;;;;;;;;;;;;",
";;;;;;;;;;;;;;;;;;;;;;;;;;;;;;;;;;;;;;",
";;;;;;;;;;;;;;;;;;;-;;;;;;;;;;;;;;;;;;",
";;;;;;;;;;;;;;;;;;;%;;;;;;;;;;;;;;;;;;",
";;;;;;;;;;;;;;;;;;@%-;;;;;;;;;;;;;;;;;",
";;;;;;;;;;;;;;;;;; %O;;;;;;;;;;;;;;;;;",
";;;;;;;;;;;;;;;;;;.%O-;;;;;;;;;;;;;;;;",
";;;;;;;;;;;;;;;;;@.%O-;;;;;;;;;;;;;;;;",
";;;;;;;;;;;;;;;;;#.%O*;;;;;;;;;;;;;;;;",
";;;;;;;;;;;;;;;;@#&%O.*;;;;;;;;;;;;;;;",
";;;;;;;;;;;;;;;;@# %O.*;;;;;;;;;;;;;;;",
";;;;;;;;;;;;;;;@#& %O-.*;;;;;;;;;;;;;;",
";;;;;;;;;;;;;;;@&  %O-..;;;;;;;;;;;;;;",
";;;;;;;;;;;;;;;@&  %O&-.;;;;;;;;;;;;;;",
";;;;;;;;;;;;;;&& @ %O&-..;;;;;;;;;;;;;",
";;;;;;;;;;;;;;&&+@ %O%&-.;;;;;;;;;;;;;",
";;;;;;;;;;;;;&& +@ % %%%X;;;;;;;;;;;;;",
";;;;;;;;;;;;;&&@@ %% O%%.X;;;;;;;;;;;;",
";;;;;;;;;;;;;&@@ @%-  O%%.;;;;;;;;;;;;",
";;;;;;;;;;;;&&@ %%%-  O%%.X;;;;;;;;;;;",
";;;;;;;;;;;;@@@ %%%-   O%%X;;;;;;;;;;;",
";;;;;;;;;;;--@  %%%@    O%--;;;;;;;;;;",
";;;;;;;;;;@@% @@@@@@       .@;;;;;;;;;",
";;;;;;;;;;;@%% @----%%%##o.@;;;;;;;;;;",
";;;;;;;;;;;;@% @@==-$$%#&&&;;;;;;;;;;;",
";;;;;;;;;;;;;@% @%=-%##&&&;;;;;;;;;;;;",
";;;;;;;;;;;;;;@% @%-##--&;;;;;;;;;;;;;",
";;;;;;;;;;;;;;;#% @$%*-&;;;;;;;;;;;;;;",
";;;;;;;;;;;;;;;;#% $ *&;;;;;;;;;;;;;;;",
";;;;;;;;;;;;;;;;;#%$ @;;;;;;;;;;;;;;;;",
";;;;;;;;;;;;;;;;;;@- ;;;;;;;;;;;;;;;;;",
";;;;;;;;;;;;;;;;;;;@;;;;;;;;;;;;;;;;;;",
";;;;;;;;;;;;;;;;;;;;;;;;;;;;;;;;;;;;;;",
";;;;;;;;;;;;;;;;;;;;;;;;;;;;;;;;;;;;;;",
";;;;;;;;;;;;;;;;;;;;;;;;;;;;;;;;;;;;;;",
";;;;;;;;;;;;;;;;;;;;;;;;;;;;;;;;;;;;;;",
";;;;;;;;;;;;;;;;;;;;;;;;;;;;;;;;;;;;;;",
";;;;;;;;;;;;;;;;;;;;;;;;;;;;;;;;;;;;;;",
";;;;;;;;;;;;;;;;;;;;;;;;;;;;;;;;;;;;;;",
";;;;;;;;;;;;;;;;;;;;;;;;;;;;;;;;;;;;;;",
";;;;;;;;;;;;;;;;;;;;;;;;;;;;;;;;;;;;;;"
};
