/* XPM */
static char *result[] = {
/* columns rows colors chars-per-pixel */
"128 128 24 1 ",
"  c #060608",
". c #141013",
"X c #14182E",
"o c #3B1725",
"O c #73172D",
"+ c #5B3138",
"@ c #2B2B45",
"# c #2C354D",
"$ c #143464",
"% c #404973",
"& c #B4202A",
"* c #DF3E23",
"= c #FA6A0A",
"- c #BB7547",
"; c #BA756A",
": c #F9A31B",
"> c #DBA463",
", c #4C6885",
"< c #686F99",
"1 c #8B93AF",
"2 c #E9B5A3",
"3 c #B3B9D1",
"4 c #E3E6FF",
"5 c None",
/* pixels */
"55555555555555555555555555555555555555555555555555555555555555555555555555555555555555555555555555555555555555555555555555555555",
"55555555555555555555555555555555555555555555555555555555555555555555555555555555555555555555555555555555555555555555555555555555",
"55555555555555555555555555555555555555555555555555555555555555555555555555555555555555555555555555555555555555555555555555555555",
"55555555555555555555555555555555555555555555555555555555555555555555555555555555555555555555555555555555555555555555555555555555",
"55555555555555555555555555555555555555555555555555555555555555555555555555555555555555555555555555555555555555555555555555555555",
"55555555555555555555555555555555555555555555555555555555555555555555555555555555555555555555555555555555555555555555555555555555",
"55555555555555555555555555555555555555555555555555555555555555555555555555555555555555555555555555555555555555555555555555555555",
"55555555555555555555555555555555555555555555555555555555555555555555555555555555555555555555555555555555555555555555555555555555",
"55555555555555555555555555555555555555555555555555555555555555555555555555555555555555555555555555555555555555555555555555555555",
"55555555555555555555555555555555555555555555555555555555555555555555555555555555555555555555555555555555555555555555555555555555",
"55555555555555555555555555555555555555555555555555555555555555555555555555555555555555555555555555555555555555555555555555555555",
"55555555555555555555555555555555555555555555555555555555555555555555555555555555555555555555555555555555555555555555555555555555",
"55555555555555555555555555555555555555555555555555555555555555555555555555555555555555555555555555555555555555555555555555555555",
"55555555555555555555555555555555555555555555555555555555555555555555555555555555555555555555555555555555555555555555555555555555",
"55555555555555555555555555555555555555555555555555555555555555555555555555555555555555555555555555555555555555555555555555555555",
"55555555555555555555555555555555555555555555555555555555555555555555555555555555555555555555555555555555555555555555555555555555",
"55555555555555555555555555555555555555555555555555555555555555555555555555555555555555555555555555555555555555555555555555555555",
"55555555555555555555555555555555555555555555555555555555555555555555555555555555555555555555555555555555555555555555555555555555",
"55555555555555555555555555555555555555555555555555555555555555555555555555555555555555555555555555555555555555555555555555555555",
"55555555555555555555555555555555555555555555555555555555555555555555555555555555555555555555555555555555555555555555555555555555",
"55555555555555555555555555555555555555555555555555555555555555555555555555555555555555555555555555555555555555555555555555555555",
"55555555555555555555555555555555555555555555555555555555555555555555555555555555555555555555555555555555555555555555555555555555",
"55555555555555555555555555555555555555555555555555555555555555555555555555555555555555555555555555555555555555555555555555555555",
"55555555555555555555555555555555555555555555555555555555555555555555555555555555555555555555555555555555555555555555555555555555",
"55555555555555555555555555555555555555555555555555555555555555555555555555555555555555555555555555555555555555555555555555555555",
"55555555555555555555555555555555555555555555555555555555555555555555555555555555555555555555555555555555555555555555555555555555",
"55555555555555555555555555555555555555555555555555555555555555555555555555555555555555555555555555555555555555555555555555555555",
"55555555555555555555555555555555555555555555555555555555555555555555555555555555555555555555555555555555555555555555555555555555",
"55555555555555555555555555555555555555555555555555555555555555555555555555555555555555555555555555555555555555555555555555555555",
"55555555555555555555555555555555555555555555555555555555555555555555555555555555555555555555555555555555555555555555555555555555",
"55555555555555555555555555555555555555555555555555555555555555555555555555555555555555555555555555555555555555555555555555555555",
"55555555555555555555555555555555555555555555555555555555555555555555555555555555555555555555555555555555555555555555555555555555",
"55555555555555555555555555555555555555555555555555555555555555555555555555555555555555555555555555555555555555555555555555555555",
"55555555555555555555555555555555555555555555555555555555555555555555555555555555555555555555555555555555555555555555555555555555",
"55555555555555555555555555555555555555555555555555555555555555555555555555555555555555555555555555555555555555555555555555555555",
"55555555555555555555555555555555555555555555555555555555555555555555555555555555555555555555555555555555555555555555555555555555",
"55555555555555555555555555555555555555555555555555555555555555555555555555555555555555555555555555555555555555555555555555555555",
"55555555555555555555555555555555555555555555555555555555555555555555555555555555555555555555555555555555555555555555555555555555",
"55555555555555555555555555555555555555555555555555555555555555555555555555555555555555555555555555555555555555555555555555555555",
"55555555555555555555555555555555555555555555555555555555555555555555555555555555555555555555555555555555555555555555555555555555",
"55555555555555555555555555555555555555555555555555555555555555555555555555555555555555555555555555555555555555555555555555555555",
"55555555555555555555555555555555555555555555555555555555555555555555555555555555555555555555555555555555555555555555555555555555",
"55555555555555555555555555555555555555555555555555555555555555555555555555555555555555555555555555555555555555555555555555555555",
"55555555555555555555555555555555555555555555555555555555555555555555555555555555555555555555555555555555555555555555555555555555",
"55555555555555555555555555555555555555555555555555555555555555555555555555555555555555555555555555555555555555555555555555555555",
"55555555555555555555555555555555555555555555555555555555555555555555555555555555555555555555555555555555555555555555555555555555",
"55555555555555555555555555555555555555555555555555555555555555555555555555555555555555555555555555555555555555555555555555555555",
"55555555555555555555555555555555555555555555555555555555555555555555555555555555555555555555555555555555555555555555555555555555",
"55555555555555555555555555555555555555555555555555555555555555555555555555555555555555555555555555555555555555555555555555555555",
"55555555555555555555555555555555555555555555555555555555555555555555555555555555555555555555555555555555555555555555555555555555",
"55555555555555555555555555555555555555555555555555555555555555555555555555555555555555555555555555555555555555555555555555555555",
"55555555555555555555555555555555555555555555555555555555555555555555555555555555555555555555555555555555555555555555555555555555",
"55555555555555555555555555555555555555555555555555555555555555555555555555555555555555555555555555555555555555555555555555555555",
"55555555555555555555555555555555555555555555555555555555555555555555555555555555555555555555555555555555555555555555555555555555",
"55555555555555555555555555555555555555555555555555555555555555555555555555555555555555555555555555555555555555555555555555555555",
"55555555555555555555555555555555555555555555555555555555555555555555555555555555555555555555555555555555555555555555555555555555",
"55555555555555555555555555555555555555555555555555555555555555555555555555555555555555555555555555555555555555555555555555555555",
"555555555555555555555555555555555555555555555555555555555    5555555555555555555555555555555555555555555555555555555555555555555",
"5555555555555555555555555555555555555555555555555555555  4444 555555555555555555555555555555555555555555555555555555555555555555",
"555555555555555555555555555555555555555555555555555555 44   4  55555555555555555555555555555555555555555555555555555555555555555",
"55555555555555555555555555555555555555555555555555555 4  ... 22 5555555555555555555555555555555555555555555555555555555555555555",
"55555555555555555555555555555555555555555555555555555  ....  2;2   5555555555555555555555555555555555555555555555555555555555555",
"5555555555555555555555555555555555555555555555555555  ..... 2   22; 555555555555555555555555555555555555555555555555555555555555",
"5555555555555555555555555555555555555555555555555555 ..... 2 ; &o222 55555555555555555555555555555555555555555555555555555555555",
"5555555555555555555555555555555555555555555555555555 ..... 2; 4422   55555555555555555555555555555555555555555555555555555555555",
"555555555555555555555555555555555555555555555555555 ...... 222222 4O 55555555555555555555555555555555555555555555555555555555555",
"555555555555555555555555555555555555555555555555555 ...... 222222 OO 55555555555555555555555555555555555555555555555555555555555",
"555555555555555555555555555555555555555555555555555 ....   222222 O   5555555555555555555555555555555555555555555555555555555555",
"555555555555555555555555555555555555555555555555555 ... 222;22222  222 555555555555555555555555555555555555555555555555555555555",
"555555555555555555555555555555555555555555555555555 ... 2; ;;222222;;; 555555555555555555555555555555555555555555555555555555555",
"5555555555555555555555555555555555555555555555555555 ... 2; ;;22;;    5555555555555555555555555555555555555555555555555555555555",
"5555555555555555555555555555555555555555555555555555 ....  ; ;;;  2; 55555555555555555555555     5555555555555555555555555555555",
"5555555555555555555555555555555555555555555555555555 ...... ;   22; 5555555555555555555555  22222 555555555555555555555555555555",
"55555555555555555555555555555555555555555555555555555 .... ;;;;22;; 5555555555555555      2222;  5555555555555555555555555555555",
"555555555555555555555555555555555555555555555555555555 .  2;;;;;2;; 55555555555     444444 ;22 555555555555555555555555555555555",
"5555555555555555555555555555555555555555555555555555555 5  222;;;; 5555555     4444444441$ ;;2 555555555555555555555555555555555",
"55555555555555555555555555555555555555555555555555555555 44     ;; 5      44444$44444111$$  ;;2 55555555555555555555555555555555",
"55555555555555555555555555555555555555555555555555555555 4444441 ;  444 44444444$11===$   55   555555555555555555555555555555555",
"555555555555555555555555555555555555555555555555555555555 114441 ; 41  4 444$411$  === 55555555555555555555555555555555555555555",
"555555555555555555555555555555555555555555555555555555   X  1441 ; 4 @@ 4 111$$  55555555555555555555555555555555555555555555555",
"55555555555555555555555555555555555555555555555555555 4 XXXX 1144 41 X@@ 1$$   5555555555555555555555555555555555555555555555555",
"55555555555555555555555555555555555555555555555555555 41 XXXX  14 4 XXX@ $  5555555555555555555555555555555555555555555555555555",
"5555555555555555555555555555555555555555555555555555 441 XXXXXX    XXXX@  555555555555555555555555555555555555555555555555555555",
"5555555555555555555555555555555555555555555555555555 441 XXXXXXX O XXXX@ 5555555555555555555555555555555555555555555555555555555",
"555555555555555555555555555555555555555555555555555 444$ XXXXXX &&& XXX@ 5555555555555555555555555555555555555555555555555555555",
"555555555555555555555555555555555555555555555555555 444$ XXXXXXX * XXXX@ 5555555555555555555555555555555555555555555555555555555",
"55555555555555555555555555555555555555555555555555 4441 5 XXXXXXX @ XXX@ 5555555555555555555555555555555555555555555555555555555",
"55555555555555555555555555555555555555555555555555 444$ 5 XXXXXXXX@ =:X@ 5555555555555555555555555555555555555555555555555555555",
"5555555555555555555555555555555555555555555555555 4141 555 XXXXXXX==::== 5555555555555555555555555555555555555555555555555555555",
"5555555555555555555555555555555555555555555555555 4$4$ 555 XXXXXX:::55:= 5555555555555555555555555555555555555555555555555555555",
"555555555555555555555555555555555555555555555555 44$1 55555 XXXX:=5555=@ 5555555555555555555555555555555555555555555555555555555",
"55555555555555555555555555555555555555555555555 4444$ 555555  XX=55555=@ 5555555555555555555555555555555555555555555555555555555",
"55555555555555555555555555555555555555555555555 1441=5555555 XXX=5555==@ 5555555555555555555555555555555555555555555555555555555",
"5555555555555555555555555555555555555555555555 4$14$=5555555 XXX:5:::XX@ 5555555555555555555555555555555555555555555555555555555",
"5555555555555555555555555555555555555555555555 44$1==5555555  XX=====XX@ 5555555555555555555555555555555555555555555555555555555",
"555555555555555555555555555555555555555555555 4444$=55555555 +   @@@ X@ + 555555555555555555555555555555555555555555555555555555",
"555555555555555555555555555555555555555555555 4441 55555555 # +++      +  555555555555555555555555555555555555555555555555555555",
"55555555555555555555555555555555555555555555 4444$ 55555555 ##   ++++++ # 555555555555555555555555555555555555555555555555555555",
"55555555555555555555555555555555555555555555 1141 555555555 #####      ## 555555555555555555555555555555555555555555555555555555",
"55555555555555555555555555555555555555555555   1$ 55555555 ####XX######### 55555555555555555555555555555555555555555555555555555",
"55555555555555555555555555555555555555555555 22  555555555 #####XX######## 55555555555555555555555555555555555555555555555555555",
"55555555555555555555555555555555555555555555    5555555555 ######XX####### 55555555555555555555555555555555555555555555555555555",
"5555555555555555555555555555555555555555555 >>> 5555555555 ######XX######## 5555555555555555555555555555555555555555555555555555",
"555555555555555555555555555555555555555555 >>>>> 555555555 ######XX######## 5555555555555555555555555555555555555555555555555555",
"555555555555555555555555555555555555555555 ->%>> 555555555 ######XX X####### 555555555555555555555555555555555555555555555555555",
"555555555555555555555555555555555555555555 -%<%- 555555555==#####XX XX###### 555555555555555555555555555555555555555555555555555",
"5555555555555555555555555555555555555555555%<%- 5555555555==####XXX XXX##### 555555555555555555555555555555555555555555555555555",
"5555555555555555555555555555555555555555555%<% 5555555555==#####XX   XXX##### 55555555555555555555555555555555555555555555555555",
"555555555555555555555555555555555555555555%<%555555555555==#####XX 55 XXX#### 55555555555555555555555555555555555555555555555555",
"555555555555555555555555555555555555555555%<%555555555555==####XX 5555 XXX### 55555555555555555555555555555555555555555555555555",
"55555555555555555555555555555555555555555%<%5555555555555=#####XX 55555 XXX### 5555555555555555555555555555555555555555555555555",
"55555555555555555555555555555555555555555%<%5555555555555=####XX 5555555 XX### 5555555555555555555555555555555555555555555555555",
"5555555555555555555555555555555555555555%<%55555555555555=####XX 55555555 X### 5555555555555555555555555555555555555555555555555",
"5555555555555555555555555555555555555555%<%5555555555555 ####XX 555555555 X### 5555555555555555555555555555555555555555555555555",
"555555555555555555555555555555555555555%<%55555555555555 ###XX 5555555555 X### 5555555555555555555555555555555555555555555555555",
"555555555555555555555555555555555555555%3%55555555555555 ###XX 5555555555 X### 5555555555555555555555555555555555555555555555555",
"55555555555555555555555555555555555555<3<55555555555555 ###XX 55555555555 XX## 5555555555555555555555555555555555555555555555555",
"55555555555555555555555555555555555555<3<55555555555555 ##XXX 55555555555 XX## 5555555555555555555555555555555555555555555555555",
"5555555555555555555555555555555555555<3<555555555555555 ##XX 5555555555555 X## 5555555555555555555555555555555555555555555555555",
"5555555555555555555555555555555555555<3<555555555555555 #XXX 5555555555555 X## 5555555555555555555555555555555555555555555555555",
"555555555555555555555555555555555555<3<5555555555555555 #XX 55555555555555 X## 5555555555555555555555555555555555555555555555555",
"555555555555555555555555555555555555<3<5555555555555555 XXX 55555555555555 X## 5555555555555555555555555555555555555555555555555",
"55555555555555555555555555555555555,3<5555555555555555 #XXX 55555555555555 X## 5555555555555555555555555555555555555555555555555",
"5555555555555555555555555555555555513<5555555555555555     555555555555555 XX# 5555555555555555555555555555555555555555555555555",
"555555555555555555555555555555555513155555555555555555 +++ 555555555555555 XX + 555555555555555555555555555555555555555555555555",
"555555555555555555555555555555555513155555555555555555 +++ 555555555555555 X +++ 55555555555555555555555555555555555555555555555",
"555555555555555555555555555555555131555555555555555555 ++++ 55555555555555  +++++  555555555555555555555555555555555555555555555",
"555555555555555555555555555555555115555555555555555555 +++++ 5555555555555 ++++++++ 55555555555555555555555555555555555555555555"
};
