/* XPM */
static char *result[] = {
/* columns rows colors chars-per-pixel */
"128 128 23 1 ",
"  c #060608",
". c #141013",
"X c #14182E",
"o c #3B1725",
"O c #73172D",
"+ c #5B3138",
"@ c #2B2B45",
"# c #2C354D",
"$ c #143464",
"% c #404973",
"& c #B4202A",
"* c #DF3E23",
"= c #FA6A0A",
"- c #BB7547",
"; c #BA756A",
": c #F9A31B",
"> c #DBA463",
", c #686F99",
"< c #8B93AF",
"1 c #E9B5A3",
"2 c #B3B9D1",
"3 c #E3E6FF",
"4 c None",
/* pixels */
"44444444444444444444444444444444444444444444444444444444444444444444444444444444444444444444444444444444444444444444444444444444",
"44444444444444444444444444444444444444444444444444444444444444444444444444444444444444444444444444444444444444444444444444444444",
"44444444444444444444444444444444444444444444444444444444444444444444444444444444444444444444444444444444444444444444444444444444",
"44444444444444444444444444444444444444444444444444444444444444444444444444444444444444444444444444444444444444444444444444444444",
"44444444444444444444444444444444444444444444444444444444444444444444444444444444444444444444444444444444444444444444444444444444",
"44444444444444444444444444444444444444444444444444444444444444444444444444444444444444444444444444444444444444444444444444444444",
"44444444444444444444444444444444444444444444444444444444444444444444444444444444444444444444444444444444444444444444444444444444",
"44444444444444444444444444444444444444444444444444444444444444444444444444444444444444444444444444444444444444444444444444444444",
"44444444444444444444444444444444444444444444444444444444444444444444444444444444444444444444444444444444444444444444444444444444",
"44444444444444444444444444444444444444444444444444444444444444444444444444444444444444444444444444444444444444444444444444444444",
"44444444444444444444444444444444444444444444444444444444444444444444444444444444444444444444444444444444444444444444444444444444",
"44444444444444444444444444444444444444444444444444444444444444444444444444444444444444444444444444444444444444444444444444444444",
"44444444444444444444444444444444444444444444444444444444444444444444444444444444444444444444444444444444444444444444444444444444",
"44444444444444444444444444444444444444444444444444444444444444444444444444444444444444444444444444444444444444444444444444444444",
"44444444444444444444444444444444444444444444444444444444444444444444444444444444444444444444444444444444444444444444444444444444",
"44444444444444444444444444444444444444444444444444444444444444444444444444444444444444444444444444444444444444444444444444444444",
"44444444444444444444444444444444444444444444444444444444444444444444444444444444444444444444444444444444444444444444444444444444",
"44444444444444444444444444444444444444444444444444444444444444444444444444444444444444444444444444444444444444444444444444444444",
"44444444444444444444444444444444444444444444444444444444444444444444444444444444444444444444444444444444444444444444444444444444",
"44444444444444444444444444444444444444444444444444444444444444444444444444444444444444444444444444444444444444444444444444444444",
"44444444444444444444444444444444444444444444444444444444444444444444444444444444444444444444444444444444444444444444444444444444",
"44444444444444444444444444444444444444444444444444444444444444444444444444444444444444444444444444444444444444444444444444444444",
"44444444444444444444444444444444444444444444444444444444444444444444444444444444444444444444444444444444444444444444444444444444",
"44444444444444444444444444444444444444444444444444444444444444444444444444444444444444444444444444444444444444444444444444444444",
"44444444444444444444444444444444444444444444444444444444444444444444444444444444444444444444444444444444444444444444444444444444",
"44444444444444444444444444444444444444444444444444444444444444444444444444444444444444444444444444444444444444444444444444444444",
"44444444444444444444444444444444444444444444444444444444444444444444444444444444444444444444444444444444444444444444444444444444",
"44444444444444444444444444444444444444444444444444444444444444444444444444444444444444444444444444444444444444444444444444444444",
"44444444444444444444444444444444444444444444444444444444444444444444444444444444444444444444444444444444444444444444444444444444",
"44444444444444444444444444444444444444444444444444444444444444444444444444444444444444444444444444444444444444444444444444444444",
"44444444444444444444444444444444444444444444444444444444444444444444444444444444444444444444444444444444444444444444444444444444",
"44444444444444444444444444444444444444444444444444444444444444444444444444444444444444444444444444444444444444444444444444444444",
"44444444444444444444444444444444444444444444444444444444444444444444444444444444444444444444444444444444444444444444444444444444",
"44444444444444444444444444444444444444444444444444444444444444444444444444444444444444444444444444444444444444444444444444444444",
"44444444444444444444444444444444444444444444444444444444444444444444444444444444444444444444444444444444444444444444444444444444",
"44444444444444444444444444444444444444444444444444444444444444444444444444444444444444444444444444444444444444444444444444444444",
"44444444444444444444444444444444444444444444444444444444444444444444444444444444444444444444444444444444444444444444444444444444",
"44444444444444444444444444444444444444444444444444444444444444444444444444444444444444444444444444444444444444444444444444444444",
"44444444444444444444444444444444444444444444444444444444444444444444444444444444444444444444444444444444444444444444444444444444",
"44444444444444444444444444444444444444444444444444444444444444444444444444444444444444444444444444444444444444444444444444444444",
"44444444444444444444444444444444444444444444444444444444444444444444444444444444444444444444444444444444444444444444444444444444",
"44444444444444444444444444444444444444444444444444444444444444444444444444444444444444444444444444444444444444444444444444444444",
"44444444444444444444444444444444444444444444444444444444444444444444444444444444444444444444444444444444444444444444444444444444",
"44444444444444444444444444444444444444444444444444444444444444444444444444444444444444444444444444444444444444444444444444444444",
"44444444444444444444444444444444444444444444444444444444444444444444444444444444444444444444444444444444444444444444444444444444",
"44444444444444444444444444444444444444444444444444444444444444444444444444444444444444444444444444444444444444444444444444444444",
"44444444444444444444444444444444444444444444444444444444444444444444444444444444444444444444444444444444444444444444444444444444",
"44444444444444444444444444444444444444444444444444444444444444444444444444444444444444444444444444444444444444444444444444444444",
"44444444444444444444444444444444444444444444444444444444444444444444444444444444444444444444444444444444444444444444444444444444",
"44444444444444444444444444444444444444444444444444444444444444444444444444444444444444444444444444444444444444444444444444444444",
"44444444444444444444444444444444444444444444444444444444444444444444444444444444444444444444444444444444444444444444444444444444",
"44444444444444444444444444444444444444444444444444444444444444444444444444444444444444444444444444444444444444444444444444444444",
"44444444444444444444444444444444444444444444444444444444444444444444444444444444444444444444444444444444444444444444444444444444",
"44444444444444444444444444444444444444444444444444444444444444444444444444444444444444444444444444444444444444444444444444444444",
"44444444444444444444444444444444444444444444444444444444444444444444444444444444444444444444444444444444444444444444444444444444",
"44444444444444444444444444444444444444444444444444444444444444444444444444444444444444444444444444444444444444444444444444444444",
"44444444444444444444444444444444444444444444444444444444444444444444444444444444444444444444444444444444444444444444444444444444",
"444444444444444444444444444444444444444444444444444444444    4444444444444444444444444444444444444444444444444444444444444444444",
"4444444444444444444444444444444444444444444444444444444  3333 444444444444444444444444444444444444444444444444444444444444444444",
"444444444444444444444444444444444444444444444444444444 33   3  44444444444444444444444444444444444444444444444444444444444444444",
"44444444444444444444444444444444444444444444444444444 3  ... 11 4444444444444444444444444444444444444444444444444444444444444444",
"44444444444444444444444444444444444444444444444444444  ....  1;1   4444444444444444444444444444444444444444444444444444444444444",
"4444444444444444444444444444444444444444444444444444  ..... 1   11; 444444444444444444444444444444444444444444444444444444444444",
"4444444444444444444444444444444444444444444444444444 ..... 1 ; &o111 44444444444444444444444444444444444444444444444444444444444",
"4444444444444444444444444444444444444444444444444444 ..... 1; 3311   44444444444444444444444444444444444444444444444444444444444",
"444444444444444444444444444444444444444444444444444 ...... 111111 3O 44444444444444444444444444444444444444444444444444444444444",
"444444444444444444444444444444444444444444444444444 ...... 111111 OO 44444444444444444444444444444444444444444444444444444444444",
"444444444444444444444444444444444444444444444444444 ....   111111 O   4444444444444444444444444444444444444444444444444444444444",
"444444444444444444444444444444444444444444444444444 ... 111;11111  111 444444444444444444444444444444444444444444444444444444444",
"444444444444444444444444444444444444444444444444444 ... 1; ;;111111;;; 444444444444444444444444444444444444444444444444444444444",
"4444444444444444444444444444444444444444444444444444 ... 1; ;;11;;    4444444444444444444444444444444444444444444444444444444444",
"4444444444444444444444444444444444444444444444444444 ....  ; ;;;  1; 44444444444444444444444     4444444444444444444444444444444",
"4444444444444444444444444444444444444444444444444444 ...... ;   11; 4444444444444444444444  11111 444444444444444444444444444444",
"44444444444444444444444444444444444444444444444444444 .... ;;;;11;; 4444444444444444      1111;  4444444444444444444444444444444",
"444444444444444444444444444444444444444444444444444444 . =::;;;;1;; 44444444444     333333 ;11 444444444444444444444444444444444",
"4444444444444444444444444444444444444444444444444444444 4444=:;;;; 4444444     333333333<$ ;;1 444444444444444444444444444444444",
"444444444444444444444444444444444444444444444444444444444444=   ;; 4      33333$33333===$$  ;;1 44444444444444444444444444444444",
"444444444444444444444444444444444444444444444444====44444444=33< ;  333 333333=3$======4  44   444444444444444444444444444444444",
"44444444444444444444444444444444444444444444444444444444444=333< ; 3<  3 333$3==444444444444444444444444444444444444444444444444",
"444444444444444444444444444444444444444444444444444444   X  <33< ; 3 @@ 3 <<<$=4444444==4444444444444444444444444444444444444444",
"44444444444444444444444444444444444444444444444444444 3 XXXX <<33 3< X@@ <$$  444444444==444444444444444444444444444444444444444",
"44444444444444444444444444444444444444444444444444444 3< XXXX  <3 3 XXX@ $  4444444444444=:4444444444444444444444444444444444444",
"4444444444444444444444444444444444444444444444444444 33< XXXXXX    XXXX@  4444444444444444=:444444444444444444444444444444444444",
"4444444444444444444444444444444444444444444444444444 33< XXXXXXX O XXXX@ 444444444444444444:444444444444444444444444444444444444",
"444444444444444444444444444444444444444444444444444 333$ XXXXXX &&& :XX@ 4444444444444444444444444444444444444444444444444444444",
"444444444444444444444444444444444444444444444444444 333$ XXXXXXX * ==XX@ 4444444444444444444444444444444444444444444444444444444",
"44444444444444444444444444444444444444444444444444 333< 4 XXXXX:= 44444@ 4444444444444444444444444444444444444444444444444444444",
"44444444444444444444444444444444444444444444444444 333$ 4 XXXX:=44444444 4444444444444444444444444444444444444444444444444444444",
"4444444444444444444444444444444444444444444444444 3<3< 444 XX==44444444444444444444444444444444444444444444444444444444444444444",
"44444444444444444444444444444444444444444:::44444 3$3$ 444 X=4444444444444444444444444444444444444444444444444444444444444444444",
"444444444444444444444444444444444444444::4444444 33:= 44444=44444444444444444444:44444444444444444444444444444444444444444444444",
"444444444444444444444444444444444444444O4444444 33::=44444444444444:4444=4444444444444444444444444444444444444444444444444444444",
"44444444444444444444444444444444444444444444444 <3:=44444444:4444444444==4444444444444444444444444444444444444444444444444444444",
"4444444444444444444444444444444444444444444444 3$:=444444444=444444444=: 4444444444444444444444444444444444444444444444444444444",
"4444444444444444444444444444444444444444444444 33:=444444444==4444444=:: 4444444444444444444444444444444444444444444444444444444",
"444444444444444444444444444444444444444444444 3333=444444444:=4444===X@ + 444444444444444444444444444444444444444444444444444444",
"444444444444444444444444444444444444444444444 333< 44444444 #:==:=::   +  444444444444444444444444444444444444444444444444444444",
"44444444444444444444444444444444444444444444 3333$ 44444444 #::: ++++++ # 444444444444444444444444444444444444444444444444444444",
"44444444444444444444444444444444444444444444 <<3< 444444444 #####      ## 444444444444444444444444444444444444444444444444444444",
"44444444444444444444444444444444444444444444   <$ 44444444 ####XX######### 44444444444444444444444444444444444444444444444444444",
"44444444444444444444444444444444444444444444 11  444444444 #####XX######## 44444444444444444444444444444444444444444444444444444",
"44444444444444444444444444444444444444444444 1111 44444444 ######XX####### 44444444444444444444444444444444444444444444444444444",
"44444444444444444444444444444444444444444444 11111 4444444 ######XX######## 4444444444444444444444444444444444444444444444444444",
"44444444444444444444444444444444444444444444 111 1 4444444==#####XX######## 4444444444444444444444444444444444444444444444444444",
"444444444444444444444444444444444444444444444 1 4 444444444::####XX X####### 444444444444444444444444444444444444444444444444444",
"444444444444444444444444444444444444444444444 1 444444444444=####XX XX###### 444444444444444444444444444444444444444444444444444",
"44444444444444444444444444444444444444444444   4444444444444::##XXX XXX##### 444444444444444444444444444444444444444444444444444",
"4444444444444444444444444444444444444444444 >>> 444444444444=:##XX   XXX##### 44444444444444444444444444444444444444444444444444",
"444444444444444444444444444444444444444444 >>>>> 44444444444=:##XX 44 XXX#### 44444444444444444444444444444444444444444444444444",
"444444444444444444444444444444444444444444 >%>>- 44444444444:##XX 4444 XXX### 44444444444444444444444444444444444444444444444444",
"444444444444444444444444444444444444444444 %,%>- 4444444444=:##XX 44444 XXX### 4444444444444444444444444444444444444444444444444",
"444444444444444444444444444444444444444444%,%-- 44::4444444::#XX 4444444 XX### 4444444444444444444444444444444444444444444444444",
"44444444444444444444444444444444444444444%,%   444:4444444:=##XX 44444444 X###=4444444444444444444444444444444444444444444444444",
"4444444444444444444444444444444444444444%,%444444444444444:##XX 444444444 X##:=4444444444444444444444444444444444444444444444444",
"444444444444444444444444444444444444444%,%44444444444444 ::#XX 4444444444 X##:44444444444444444444444444444444444444444444444444",
"44444444444444444444444444444444444444,,%444444444444444 ###XX 4444444444 X##:444:4444444444444444444444444444444444444444444444",
"4444444444444444444444444444444444444,<%444444444444444 ###XX 44444444444 XX#:44444444444444444444444444444444444444444444444444",
"444444444444444444444444444444444444,<%4444444444444444 ##XXX 44444444444 XX#=4444444:444444444444444444444444444444444444444444",
"44444444444444444444444444444444444,<,44444444444444444 ##XX 4444444444444 X#:=4444444444444444444444444444444444444444444444444",
"4444444444444444444444444444444444,<,444444444444444444 #XXX 4444444444444 X#: 4444444444444444444444444444444444444444444444444",
"444444444444444444444444444444444,<,4444444444444444444 #XX 44444444444444 X## 4444444444444444444444444444444444444444444444444",
"44444444444444444444444444444444,2<44444444444444444444 XXX 44444444444444 X## 4444444444444444444444444444444444444444444444444",
"4444444444444444444444444444444<2<44444444444444444444 #XXX 44444444444444 X## 4444444444444444444444444444444444444444444444444",
"444444444444444444444444444444<2<444444444444444444444     444444444444444 XX# 4444444444444444444444444444444444444444444444444",
"44444444444444444444444444444<2<4444444444444444444444 +++ 444444444444444 XX + 444444444444444444444444444444444444444444444444",
"4444444444444444444444444444<2<44444444444444444444444 +++ 444444444444444 X +++ 44444444444444444444444444444444444444444444444",
"444444444444444444444444444<2<444444444444444444444444 ++++ 44444444444444  +++++  444444444444444444444444444444444444444444444",
"444444444444444444444444444<<4444444444444444444444444 +++++ 4444444444444 ++++++++ 44444444444444444444444444444444444444444444"
};
