/* XPM */
static char *result[] = {
/* columns rows colors chars-per-pixel */
"128 128 21 1 ",
"  c #060608",
". c #141013",
"X c #14182E",
"o c #3B1725",
"O c #73172D",
"+ c #5B3138",
"@ c #2C354D",
"# c #404973",
"$ c #B4202A",
"% c #DF3E23",
"& c #FA6A0A",
"* c #BB7547",
"= c #BA756A",
"- c #F9A31B",
"; c #DBA463",
": c #686F99",
"> c #8B93AF",
", c #E9B5A3",
"< c #B3B9D1",
"1 c #E3E6FF",
"2 c None",
/* pixels */
"22222222222222222222222222222222222222222222222222222222222222222222222222222222222222222222222222222222222222222222222222222222",
"22222222222222222222222222222222222222222222222222222222222222222222222222222222222222222222222222222222222222222222222222222222",
"22222222222222222222222222222222222222222222222222222222222222222222222222222222222222222222222222222222222222222222222222222222",
"22222222222222222222222222222222222222222222222222222222222222222222222222222222222222222222222222222222222222222222222222222222",
"22222222222222222222222222222222222222222222222222222222222222222222222222222222222222222222222222222222222222222222222222222222",
"22222222222222222222222222222222222222222222222222222222222222222222222222222222222222222222222222222222222222222222222222222222",
"22222222222222222222222222222222222222222222222222222222222222222222222222222222222222222222222222222222222222222222222222222222",
"22222222222222222222222222222222222222222222222222222222222222222222222222222222222222222222222222222222222222222222222222222222",
"22222222222222222222222222222222222222222222222222222222222222222222222222222222222222222222222222222222222222222222222222222222",
"22222222222222222222222222222222222222222222222222222222222222222222222222222222222222222222222222222222222222222222222222222222",
"22222222222222222222222222222222222222222222222222222222222222222222222222222222222222222222222222222222222222222222222222222222",
"22222222222222222222222222222222222222222222222222222222222222222222222222222222222222222222222222222222222222222222222222222222",
"22222222222222222222222222222222222222222222222222222222222222222222222222222222222222222222222222222222222222222222222222222222",
"22222222222222222222222222222222222222222222222222222222222222222222222222222222222222222222222222222222222222222222222222222222",
"22222222222222222222222222222222222222222222222222222222222222222222222222222222222222222222222222222222222222222222222222222222",
"22222222222222222222222222222222222222222222222222222222222222222222222222222222222222222222222222222222222222222222222222222222",
"22222222222222222222222222222222222222222222222222222222222222222222222222222222222222222222222222222222222222222222222222222222",
"22222222222222222222222222222222222222222222222222222222222222222222222222222222222222222222222222222222222222222222222222222222",
"22222222222222222222222222222222222222222222222222222222222222222222222222222222222222222222222222222222222222222222222222222222",
"22222222222222222222222222222222222222222222222222222222222222222222222222222222222222222222222222222222222222222222222222222222",
"22222222222222222222222222222222222222222222222222222222222222222222222222222222222222222222222222222222222222222222222222222222",
"22222222222222222222222222222222222222222222222222222222222222222222222222222222222222222222222222222222222222222222222222222222",
"22222222222222222222222222222222222222222222222222222222222222222222222222222222222222222222222222222222222222222222222222222222",
"22222222222222222222222222222222222222222222222222222222222222222222222222222222222222222222222222222222222222222222222222222222",
"22222222222222222222222222222222222222222222222222222222222222222222222222222222222222222222222222222222222222222222222222222222",
"22222222222222222222222222222222222222222222222222222222222222222222222222222222222222222222222222222222222222222222222222222222",
"22222222222222222222222222222222222222222222222222222222222222222222222222222222222222222222222222222222222222222222222222222222",
"22222222222222222222222222222222222222222222222222222222222222222222222222222222222222222222222222222222222222222222222222222222",
"22222222222222222222222222222222222222222222222222222222222222222222222222222222222222222222222222222222222222222222222222222222",
"22222222222222222222222222222222222222222222222222222222222222222222222222222222222222222222222222222222222222222222222222222222",
"22222222222222222222222222222222222222222222222222222222222222222222222222222222222222222222222222222222222222222222222222222222",
"22222222222222222222222222222222222222222222222222222222222222222222222222222222222222222222222222222222222222222222222222222222",
"22222222222222222222222222222222222222222222222222222222222222222222222222222222222222222222222222222222222222222222222222222222",
"22222222222222222222222222222222222222222222222222222222222222222222222222222222222222222222222222222222222222222222222222222222",
"22222222222222222222222222222222222222222222222222222222222222222222222222222222222222222222222222222222222222222222222222222222",
"22222222222222222222222222222222222222222222222222222222222222222222222222222222222222222222222222222222222222222222222222222222",
"22222222222222222222222222222222222222222222222222222222222222222222222222222222222222222222222222222222222222222222222222222222",
"22222222222222222222222222222222222222222222222222222222222222222222222222222222222222222222222222222222222222222222222222222222",
"22222222222222222222222222222222222222222222222222222222222222222222222222222222222222222222222222222222222222222222222222222222",
"22222222222222222222222222222222222222222222222222222222222222222222222222222222222222222222222222222222222222222222222222222222",
"22222222222222222222222222222222222222222222222222222222222222222222222222222222222222222222222222222222222222222222222222222222",
"22222222222222222222222222222222222222222222222222222222222222222222222222222222222222222222222222222222222222222222222222222222",
"22222222222222222222222222222222222222222222222222222222222222222222222222222222222222222222222222222222222222222222222222222222",
"22222222222222222222222222222222222222222222222222222222222222222222222222222222222222222222222222222222222222222222222222222222",
"22222222222222222222222222222222222222222222222222222222222222222222222222222222222222222222222222222222222222222222222222222222",
"22222222222222222222222222222222222222222222222222222222222222222222222222222222222222222222222222222222222222222222222222222222",
"22222222222222222222222222222222222222222222222222222222222222222222222222222222222222222222222222222222222222222222222222222222",
"22222222222222222222222222222222222222222222222222222222222222222222222222222222222222222222222222222222222222222222222222222222",
"22222222222222222222222222222222222222222222222222222222222222222222222222222222222222222222222222222222222222222222222222222222",
"22222222222222222222222222222222222222222222222222222222222222222222222222222222222222222222222222222222222222222222222222222222",
"22222222222222222222222222222222222222222222222222222222222222222222222222222222222222222222222222222222222222222222222222222222",
"22222222222222222222222222222222222222222222222222222222222222222222222222222222222222222222222222222222222222222222222222222222",
"22222222222222222222222222222222222222222222222222222222222222222222222222222222222222222222222222222222222222222222222222222222",
"22222222222222222222222222222222222222222222222222222222222222222222222222222222222222222222222222222222222222222222222222222222",
"22222222222222222222222222222222222222222222222222222222222222222222222222222222222222222222222222222222222222222222222222222222",
"22222222222222222222222222222222222222222222222222222222222222222222222222222222222222222222222222222222222222222222222222222222",
"22222222222222222222222222222222222222222222222222222222222222222222222222222222222222222222222222222222222222222222222222222222",
"222222222222222222222222222222222222222222222222222222222    2222222222222222222222222222222222222222222222222222222222222222222",
"2222222222222222222222222222222222222222222222222222222  1111 222222222222222222222222222222222222222222222222222222222222222222",
"222222222222222222222222222222222222222222222222222222 11   1  22222222222222222222222222222222222222222222222222222222222222222",
"22222222222222222222222222222222222222222222222222222 1  ... ,, 2222222222222222222222222222222222222222222222222222222222222222",
"22222222222222222222222222222222222222222222222222222  ....  ,=,   2222222222222222222222222222222222222222222222222222222222222",
"2222222222222222222222222222222222222222222222222222  ..... ,   ,,= 222222222222222222222222222222222222222222222222222222222222",
"2222222222222222222222222222222222222222222222222222 ..... , = $o,,, 22222222222222222222222222222222222222222222222222222222222",
"2222222222222222222222222222222222222222222222222222 ..... ,= 11,,   22222222222222222222222222222222222222222222222222222222222",
"222222222222222222222222222222222222222222222222222 ...... ,,,,,, 1O 22222222222222222222222222222222222222222222222222222222222",
"222222222222222222222222222222222222222222222222222 ...... ,,,,,, OO 22222222222222222222222222222222222222222222222222222222222",
"222222222222222222222222222222222222222222222222222 ....   ,,,,,, O   2222222222222222222222222222222222222222222222222222222222",
"222222222222222222222222222222222222222222222222222 &&--&&&&,,,,,  ,,, 222222222222222222222222222222222222222222222222222222222",
"222222222222222222222222222222222222222222222222222&--22222&&,,,,,,=== 222222222-22222222222222222222222222222222222222222222222",
"222222222222222222222222222222222222222222222222222222222222-&,,==    2222222---222222222222222222222222222222222222222222222222",
"2222222222222222222222222222222222222222222222222222222222222--=  ,= 22222222222222222222222     2222222222222222222222222222222",
"22222222222222222222222222222222222222222222222222222222222222-&,,= 2222222222222222222222  ,,,,, 222222222222222222222222222222",
"2222222222222222222222222222222222222222--222222222222222222222&,== 2222222222222222      ,,,,=  2222222222222222222222222222222",
"222222222222222222222222222222222222222--2222222222222222222222-,== 22222222222     111&&&&=,, 222222222222222222222222222222222",
"222222222222222222222222222222222222222222222222222222222222222--= 2222222     -----&&&&&&---, 222222222222222222222222222222222",
"2222222222222222222222222222222222222222222222222222222222222222=& 2      11---&222222222222--& 22222222222222222222222222222222",
"22222222222222222222222222222222222222222222222222222222222222222=  111 11&1222222222222222222 222222222222222222222222222222222",
"2222222222222222222222222222222222222222222222222222222222222222222&&- 1 &222222222222222222222222222222222222222222222222222222",
"2222222222222222222222222222222222-2222222222222222222   X22222222222--&22222222222222222222222222222222222222222222222222222222",
"22222222222222222222222222222222222-22222222222222222 1 XX22222222222222&o222222222222222222222222222222222222222222222222222222",
"22222222222222222222222222222222222222222222222222222 1> X222222222222222o222222222222222222222222222222222222222222222222222222",
"2222222222222222222222222222222222222222222222222222 11>&22222222 2222222&222222222222222222222222222222222222222222222222222222",
"2222222222222222222222222222222222222222222222222222 11&22222222 O 222222&222222222222222222222222222222222222222222222222222222",
"222222222222222222222222222222222222222222222222222 11--2222222 $$$ 22222-222222222222222222222222222222222222222222222222222222",
"222222222222222222222222222222222222222222222222222 &-2222222222 % 222222-222222222222222222222222222222222222222222222222222222",
"22222222222222222222222222222222222222222222222222 &-22222222222& 22222222222222222222222222222222222222222222222222222222222222",
"2222222222222222222222222222222222222---2222222222 --222222222222222222222222222222222222222222-22222222222222222222222222222222",
"2222222222222222222222222222222222222222222222222 -222222222222222222222222222222222222222222222-2222222222222222222222222222222",
"2222222222222222222222222222222222222222222222222 -222222222222222222222222222222222222222222222-2222222222222222222222222222222",
"222222222222222222222222222222222222222222222222 &-22222222222222222222222222222222222222222222222222222222222222222222222222222",
"22222222222222222222222222222222222222222222222 1&222222222222222222222222222222222222222222222222222222222222222222222222222222",
"22222222222222222222222222222222222222222222222 &-222222222222222222222222222222222222222222222222222222222222222222222222222222",
"2222222222222222222222222222222222222222222222 1&-222222222222222222222222222222222222222222222222222222222222222222222222222222",
"2222222222222222222222222222222222222222222222 1&-222222222222222222222222222222222222222222222222222222222222222222222222222222",
"222222222222222222222222222222222222222222222 111-222222222222222222222222222222222222222222222222222222222222222222222222222222",
"222222222222222222222222222222222222222222222--11&222222222222222222222222222222222222222222222222222222222222222222222222222222",
"222222222222222222222222222222222222222222222--&1&222222222222222o22222222222222222222222222222222222222222222222222222222222222",
"2222222222222222222222222222222222222222222222--&2222222222222222o22222222222222222222222222222222222222222222222222222222222222",
"22222222222222222222222222222222222222222222222-22222222222222222&22222222222222222222222222222222222222222222222222222222222222",
"22222222222222222222222222222222222222222222222222222222222222222&22222222222222222222222222222222222222222222222222222222222222",
"22222222222222222222222222222222222222222222222222222222222222222-2222222&&22222222222222222222222222222222222222222222222222222",
"22222222222222222222222222222222222222222222222222222222222222222-2222222&@ 2222222222222222222222222222222222222222222222222222",
"22222222222222222222222222222222222222222222222222222222222222222-222222&--&2222222222222222222222222222222222222222222222222222",
"222222222222222222222222222222222222222222222222222222222222222222222222--&-2222222222222222222222222222222222222222222222222222",
"2222222222222222222222222222222222222222222222222222222222222222222222--&@--2222222222222222222222222222222222222222222222222222",
"22222222222222222222222222222222222222222222222222222222222222222222&--&@&-22222222222222222222222222222222222222222222222222222",
"22222222222222222222222222222222222222222222222222222222222222222&---XXX@&-22222222222222222222222222222222222222222222222222222",
"2222222222222222222222222222222222222222222222222222222222222222&X 22 XXX&-22222222222222222222222222222222222222222222222222222",
"2222222222222222222222222222222222222222222222222222222222222222- 2222 XX&222222222222222222222222222222222222222222222222222222",
"2222222222222222222222222222222222222222222222222222222222222222- 22222 X&222222222222222222222222222222222222222222222222222222",
"222222222222222222222222222222222222222222222222222222222222222&-2222222 &222222222222222222222222222222222222222222222222222222",
"222222222222222222222222222222222222222222222222222222222222222&-2222222222222222222222222--222222222222222222222222222222222222",
"22222222222222222222222222222222222222222222222222222222222222&&-222222222222222222222222222222222222222222222222222222222222222",
"22222222222222222222222222222222222222222222222222222222222222&22222222222222222222222222222222222222222222222222222222222222222",
"2222222222222222222222222222222222222222222222222222222222222&&22222222222222222222222222222222222222222222222222222222222222222",
"2222222222222222222222222222222222222222--2222222222222222222&222222222222222222222222222222222222222222222222222222222222222222",
"22222222222222222222222222222222222222222----222222222222222- 222222222222222222222222222222222222222222222222222222222222222222",
"22222222222222222222222222222222222222222222222222222222222&-2222222222222222222222222222222222222222222222222222222222222222222",
"2222222222222222222222222222222222222222222222222222222222&- 2222222222222222222222222222222222222222222222222222222222222222222",
"2222222222222222222222222222222222222222222222222222222&--- 22222222222222222222222222222222222222222222222222222222222222222222",
"2222222222222222222222222222222222222222222222222222222 XXX 222222222222222222222222222222--222222222222222222222222222222222222",
"222222222222222222222222222222222222222222222222222222 @XXX 2222222222222222222222222222222--22222222222222222222222222222222222",
"222222222222222222222222222222222222222222222222222222     2222222222222222222&&222222222222222222222222222222222222222222222222",
"222222222222222222222222222222222222222222222   222222 +++ 22222222-222222&---& 222222222222222222222222222222222222222222222222",
"22222222222222222222222222222222222222222222 ;; 222222 +++ 222222-2--22222 &&&++ 22222222222222222222222222222222222222222222222",
"222222222222222222222>>>>>>>>>>>>>>>:::::### ;* 222222 ++++ 22222--&&--222  +++++  222222222222222222222222222222222222222222222",
"222222222222222222222><<<<<<<<<<<<<<>>>>>::: ;* 222222 +++++ 222-&&&&&--22 ++++++++ 22222222222222222222222222222222222222222222"
};
