/* XPM */
static char *result[] = {
/* columns rows colors chars-per-pixel */
"128 128 22 1 ",
"  c #060608",
". c #141013",
"X c #14182E",
"o c #73172D",
"O c #5B3138",
"+ c #2B2B45",
"@ c #2C354D",
"# c #143464",
"$ c #4A5462",
"% c #404973",
"& c #B4202A",
"* c #DF3E23",
"= c #BB7547",
"- c #BA756A",
"; c #DBA463",
": c #4C6885",
"> c #686F99",
", c #8B93AF",
"< c #E9B5A3",
"1 c #B3B9D1",
"2 c #E3E6FF",
"3 c None",
/* pixels */
"33333333333333333333333333333333333333333333333333333333333333333333333333333333333333333333333333333333333333333333333333333333",
"33333333333333333333333333333333333333333333333333333333333333333333333333333333333333333333333333333333333333333333333333333333",
"33333333333333333333333333333333333333333333333333333333333333333333333333333333333333333333333333333333333333333333333333333333",
"33333333333333333333333333333333333333333333333333333333333333333333333333333333333333333333333333333333333333333333333333333333",
"33333333333333333333333333333333333333333333333333333333333333333333333333333333333333333333333333333333333333333333333333333333",
"33333333333333333333333333333333333333333333333333333333333333333333333333333333333333333333333333333333333333333333333333333333",
"33333333333333333333333333333333333333333333333333333333333333333333333333333333333333333333333333333333333333333333333333333333",
"33333333333333333333333333333333333333333333333333333333333333333333333333333333333333333333333333333333333333333333333333333333",
"33333333333333333333333333333333333333333333333333333333333333333333333333333333333333333333333333333333333333333333333333333333",
"33333333333333333333333333333333333333333333333333333333333333333333333333333333333333333333333333333333333333333333333333333333",
"33333333333333333333333333333333333333333333333333333333333333333333333333333333333333333333333333333333333333333333333333333333",
"33333333333333333333333333333333333333333333333333333333333333333333333333333333333333333333333333333333333333333333333333333333",
"33333333333333333333333333333333333333333333333333333333333333333333333333333333333333333333333333333333333333333333333333333333",
"33333333333333333333333333333333333333333333333333333333333333333333333333333333333333333333333333333333333333333333333333333333",
"33333333333333333333333333333333333333333333333333333333333333333333333333333333333333333333333333333333333333333333333333333333",
"33333333333333333333333333333333333333333333333333333333333333333333333333333333333333333333333333333333333333333333333333333333",
"33333333333333333333333333333333333333333333333333333333333333333333333333333333333333333333333333333333333333333333333333333333",
"33333333333333333333333333333333333333333333333333333333333333333333333333333333333333333333333333333333333333333333333333333333",
"33333333333333333333333333333333333333333333333333333333333333333333333333333333333333333333333333333333333333333333333333333333",
"33333333333333333333333333333333333333333333333333333333333333333333333333333333333333333333333333333333333333333333333333333333",
"33333333333333333333333333333333333333333333333333333333333333333333333333333333333333333333333333333333333333333333333333333333",
"33333333333333333333333333333333333333333333333333333333333333333333333333333333333333333333333333333333333333333333333333333333",
"33333333333333333333333333333333333333333333333333333333333333333333333333333333333333333333333333333333333333333333333333333333",
"33333333333333333333333333333333333333333333333333333333333333333333333333333333333333333333333333333333333333333333333333333333",
"33333333333333333333333333333333333333333333333333333333333333333333333333333333333333333333333333333333333333333333333333333333",
"33333333333333333333333333333333333333333333333333333333333333333333333333333333333333333333333333333333333333333333333333333333",
"33333333333333333333333333333333333333333333333333333333333333333333333333333333333333333333333333333333333333333333333333333333",
"33333333333333333333333333333333333333333333333333333333333333333333333333333333333333333333333333333333333333333333333333333333",
"33333333333333333333333333333333333333333333333333333333333333333333333333333333333333333333333333333333333333333333333333333333",
"33333333333333333333333333333333333333333333333333333333333333333333333333333333333333333333333333333333333333333333333333333333",
"33333333333333333333333333333333333333333333333333333333333333333333333333333333333333333333333333333333333333333333333333333333",
"33333333333333333333333333333333333333333333333333333333333333333333333333333333333333333333333333333333333333333333333333333333",
"33333333333333333333333333333333333333333333333333333333333333333333333333333333333333333333333333333333333333333333333333333333",
"33333333333333333333333333333333333333333333333333333333333333333333333333333333333333333333333333333333333333333333333333333333",
"33333333333333333333333333333333333333333333333333333333333333333333333333333333333333333333333333333333333333333333333333333333",
"33333333333333333333333333333333333333333333333333333333333333333333333333333333333333333333333333333333333333333333333333333333",
"33333333333333333333333333333333333333333333333333333333333333333333333333333333333333333333333333333333333333333333333333333333",
"33333333333333333333333333333333333333333333333333333333333333333333333333333333333333333333333333333333333333333333333333333333",
"33333333333333333333333333333333333333333333333333333333333333333333333333333333333333333333333333333333333333333333333333333333",
"33333333333333333333333333333333333333333333333333333333333333333333333333333333333333333333333333333333333333333333333333333333",
"33333333333333333333333333333333333333333333333333333333333333333333333333333333333333333333333333333333333333333333333333333333",
"33333333333333333333333333333333333333333333333333333333333333333333333333333333333333333333333333333333333333333333333333333333",
"33333333333333333333333333333333333333333333333333333333333333333333333333333333333333333333333333333333333333333333333333333333",
"33333333333333333333333333333333333333333333333333333333333333333333333333333333333333333333333333333333333333333333333333333333",
"33333333333333333333333333333333333333333333333333333333333333333333333333333333333333333333333333333333333333333333333333333333",
"33333333333333333333333333333333333333333333333333333333333333333333333333333333333333333333333333333333333333333333333333333333",
"33333333333333333333333333333333333333333333333333333333333333333333333333333333333333333333333333333333333333333333333333333333",
"33333333333333333333333333333333333333333333333333333333333333333333333333333333333333333333333333333333333333333333333333333333",
"33333333333333333333333333333333333333333333333333333333333333333333333333333333333333333333333333333333333333333333333333333333",
"33333333333333333333333333333333333333333333333333333333333333333333333333333333333333333333333333333333333333333333333333333333",
"33333333333333333333333333333333333333333333333333333       33333333333333333333333333333333333333333333333333333333333333333333",
"33333333333333333333333333333333333333333333333333   2222$$2  333333333333333333333333333333333333333333333333333333333333333333",
"333333333333333333333333333333333333333333333333  ...   222$22 33333333333333333333333333333333333333333333333333333333333333333",
"33333333333333333333333333333333333333333333333 ........  22$2 33333333333333333333333333333333333333333333333333333333333333333",
"3333333333333333333333333333333333333333333333 ........... 22$2 3333333333333333333333333333333333333333333333333333333333333333",
"333333333333333333333333333333333333333333333 ......   .... 2$2 3333333333333333333333333333333333333333333333333333333333333333",
"3333333333333333333333333333333333333333333333 ..   ... ..    2 3333333333333333333333333333333333333333333333333333333333333333",
"3333333333333333333333333333333333333333333333 . .......  <<<<  3333333333333333333333333333333333333333333333333333333333333333",
"333333333333333333333333333333333333333333333 . ....... <<<<<<< 3333333333333333333333333333333333333333333333333333333333333333",
"33333333333333333333333333333333333333333333   ....... <<< --<< 3333333333333333333333333333333333333333333333333333333333333333",
"3333333333333333333333333333333333333333333333 ....  . <<--  -< 3333333333333333333333333333333333333333333333333333333333333333",
"33333333333333333333333333333333333333333333333 .. -< <<-    - 33333333333333333333333333333333333333333333333333333333333333333",
"33333333333333333333333333333333333333333333333 .. -< << 11oo< 33333333333333333333333333333333333333333333333333333333333333333",
"333333333333333333333333333333333333333333333333 .. -<<<<-22&< 33333333333333333333333333333333333333333333333333333333333333333",
"333333333333333333333333333333333333333333333333 .. -<<<<<<<<<< 3333333333333333333333333333333333333333333333333333333333333333",
"3333333333333333333333333333333333333333333333333 .. -<<<<<<<<< 3333333333333333333333333333333333333333333333333333333333333333",
"33333333333333333333333333333333333333333333333333  - -<<<<<<<< 3333333333333333333333333333333333333333333333333333333333333333",
"333333333333333333333333333333333333333333333333333 <- --<<<OO 33333333333333333333333333333333333333333333333333333333333333333",
"333333333333333333333333333333333333333333333333333 <<-  --<<< 33333333333333333333333333333333333333333333333333333333333333333",
"33333333333333333333333333333333333333333333333333 2 <<--  --- 33333333333333333333333333333333333333333333333333333333333333333",
"33333333333333333333333333333333333333333333333333 ,2   ---   333333333333333333333333333333333333333333333333333333333333333333",
"3333333333333333333333333333333333333333333333333 X ,222   333333333333333333333333333333333333333333333333333333333333333333333",
"333333333333333333333333333333333333333333333333  X ,,22222  3333333333333333333333333333333333333333333333333333333333333333333",
"33333333333333333333333333333333333333333333333 2, X  ,,,222 3333333333333333333333333333333333333333333333333333333333333333333",
"33333333333333333333333333333333333333333333333 2, XXX   ,, 33333333333333333333333333333333333333333333333333333333333333333333",
"3333333333333333333333333333333333333333333333 222, XXXXX  + 3333333333333333333333333333333333333333333333333333333333333333333",
"3333333333333333333333333333333333333333333333 222, XXXXXXX o 333333333333333333333333333333333333333333333333333333333333333333",
"333333333333333333333333333333333333333333333 222,# XXXXXXX & 333333333333333333333333333333333333333333333333333333333333333333",
"333333333333333333333333333333333333333333333 222,# XXXXXXX * 333333333333333333333333333333333333333333333333333333333333333333",
"33333333333333333333333333333333333333333333 ,#2,# XXXXXXXXX + 33333333333333333333333333333333333333333333333333333333333333333",
"33333333333333333333333333333333333333333333 2,## XXXXXXXXXXX+ 33333333333333333333333333333333333333333333333333333333333333333",
"3333333333333333333333333333333333333333333 22,#  XXXXXXXXXXX+ 33333333333333333333333333333333333333333333333333333333333333333",
"3333333333333333333333333333333333333333333 22,# 3 XXXXXXXXXX+ 33333333333333333333333333333333333333333333333333333333333333333",
"333333333333333333333333333333333333333333 222# 33 XXXXXXXXXX+ 33333333333333333333333333333333333333333333333333333333333333333",
"333333333333333333333333333333333333333333 #2,# 3 1 XXXXXXXX++ 33333333333333333333333333333333333333333333333333333333333333333",
"33333333333333333333333333333333333333333 2,## 33   XXXXXXXX++ 33333333333333333333333333333333333333333333333333333333333333333",
"3333333333333333333333333333333333333333 222,# 3 <<- XXXXXXX++ 33333333333333333333333333333333333333333333333333333333333333333",
"3333333333333333333333333333333333333333 222,# 3 <-- XXXXXX+++ 33333333333333333333333333333333333333333333333333333333333333333",
"333333333333333333333333333333333333333 222,# 33 -  > XXXXX+++ 33333333333333333333333333333333333333333333333333333333333333333",
"333333333333333333333333333333333333333 222,# 333 >>> XXXX++++ 33333333333333333333333333333333333333333333333333333333333333333",
"33333333333333333333333333333333333333 2222# 33333       +++++ 33333333333333333333333333333333333333333333333333333333333333333",
"33333333333333333333333333333333333333 222,# 33333333 OOO      33333333333333333333333333333333333333333333333333333333333333333",
"33333333333333333333333333333333333333   2# 33333333 X   OOOOO 33333333333333333333333333333333333333333333333333333333333333333",
"3333333333333333333333333333333333333 ;;; # 33333333 X@@@      33333333333333333333333333333333333333333333333333333333333333333",
"333333333333333333333333333333333333 ;;;;; 333333333 XX@@@@@@@ 33333333333333333333333333333333333333333333333333333333333333333",
"333333333333333333333333333333333333 =;%;; 333333333 XX@@@@@@@ 33333333333333333333333333333333333333333333333333333333333333333",
"333333333333333333333333333333333333 =%>%= 333333333 XX@@@@@@@ 33333333333333333333333333333333333333333333333333333333333333333",
"3333333333333333333333333333333333333%>%= 33333333333 XX@@@@@@@ 3333333333333333333333333333333333333333333333333333333333333333",
"3333333333333333333333333333333333333%>% 333333333333 XXX@@@@@@ 3333333333333333333333333333333333333333333333333333333333333333",
"333333333333333333333333333333333333%>%33333333333333  XX@@@@@@ 3333333333333333333333333333333333333333333333333333333333333333",
"333333333333333333333333333333333333%>%33333333333333 X XX@@@@@@ 333333333333333333333333333333333333333333333333333333333333333",
"33333333333333333333333333333333333%>%333333333333333 @X X@@@@@@ 333333333333333333333333333333333333333333333333333333333333333",
"33333333333333333333333333333333333%>%333333333333333 @X XX@@@@@ 333333333333333333333333333333333333333333333333333333333333333",
"3333333333333333333333333333333333%>%3333333333333333 @@X X@@@@@ 333333333333333333333333333333333333333333333333333333333333333",
"3333333333333333333333333333333333%>%3333333333333333 @@X XX@@@@ 333333333333333333333333333333333333333333333333333333333333333",
"333333333333333333333333333333333%>%33333333333333333 @@@X X@@@@@ 33333333333333333333333333333333333333333333333333333333333333",
"333333333333333333333333333333333%1%33333333333333333 @@@X XX@@@@ 33333333333333333333333333333333333333333333333333333333333333",
"33333333333333333333333333333333>1>333333333333333333 @@@XX XX@@@ 33333333333333333333333333333333333333333333333333333333333333",
"33333333333333333333333333333333>1>333333333333333333 @@XXX XXX@@ 33333333333333333333333333333333333333333333333333333333333333",
"3333333333333333333333333333333>1>3333333333333333333 @@XXX XX@@@ 33333333333333333333333333333333333333333333333333333333333333",
"3333333333333333333333333333333>1>333333333333333333 @@@XX 3 XX@@ 33333333333333333333333333333333333333333333333333333333333333",
"333333333333333333333333333333>1>3333333333333333333 @@@XX 3 XX@@ 33333333333333333333333333333333333333333333333333333333333333",
"333333333333333333333333333333>1>3333333333333333333 @@@X 33 XX@@ 33333333333333333333333333333333333333333333333333333333333333",
"33333333333333333333333333333:1>33333333333333333333 @@XX 333 X@@ 33333333333333333333333333333333333333333333333333333333333333",
"33333333333333333333333333333,1>33333333333333333333 @@XX 333 X@@ 33333333333333333333333333333333333333333333333333333333333333",
"3333333333333333333333333333,1,333333333333333333333 @@X 3333 X@@ 33333333333333333333333333333333333333333333333333333333333333",
"3333333333333333333333333333,1,333333333333333333333 @@X 3333 X@@ 33333333333333333333333333333333333333333333333333333333333333",
"333333333333333333333333333,1,3333333333333333333333 @@X 3333 X@@ 33333333333333333333333333333333333333333333333333333333333333",
"333333333333333333333333333,,3333333333333333333333 @@XX 3333 X@  33333333333333333333333333333333333333333333333333333333333333",
"333333333333333333333333333333333333333333333333333 @@X 3333 XX OO 3333333333333333333333333333333333333333333333333333333333333",
"333333333333333333333333333333333333333333333333333 @@X 3333   OOO 3333333333333333333333333333333333333333333333333333333333333",
"333333333333333333333333333333333333333333333333333 @@X 33333 OOOOO 333333333333333333333333333333333333333333333333333333333333",
"333333333333333333333333333333333333333333333333333 @@X 33333 OOOOOO 33333333333333333333333333333333333333333333333333333333333",
"333333333333333333333333333333333333333333333333333 @@  33333   OOOOO 3333333333333333333333333333333333333333333333333333333333",
"33333333333333333333333333333333333333333333333333 @@ OO 3333333      3333333333333333333333333333333333333333333333333333333333",
"33333333333333333333333333333333333333333333333333   OOOO 3333333333333333333333333333333333333333333333333333333333333333333333",
"333333333333333333333333333333333333333333333333333 OOOOOO  33333333333333333333333333333333333333333333333333333333333333333333",
"333333333333333333333333333333333333333333333333333 OOOOOOOO 3333333333333333333333333333333333333333333333333333333333333333333"
};
